<svg xmlns="http://www.w3.org/2000/svg" version="1.1" xmlns:xlink="http://www.w3.org/1999/xlink" viewBox="0 0 510 510" preserveAspectRatio="xMidYMid">
                    <defs><style>.cls-1{fill:#595959;}</style></defs>
                    <title>3d</title>
                    <g id="Layer_2" data-name="Layer 2"><g id="3d">
                    <path class="cls-1" d="M68 188l145 74c8 4 15 12 15 21v172c0 19-22 31-38 22L44 391c-8-4-12-12-12-21V211c0-19 20-32 36-23zm230 74l146-73c16-8 36 3 36 22l-1 159c0 9-4 17-12 21l-145 86c-16 9-37-3-37-22V283c0-9 5-17 13-21zM267 5l166 79c19 9 20 36 1 46l-167 83c-7 4-16 4-23 0L78 130c-19-10-19-37 0-46L245 5c7-2 15-2 22 0z"></path>
                    </g></g>
                    </svg>