<svg xmlns="http://www.w3.org/2000/svg" version="1.1" xmlns:xlink="http://www.w3.org/1999/xlink" viewBox="0 0 510 510" preserveAspectRatio="xMidYMid">
                    <defs><style>.cls-1{fill:#595959;}</style></defs>
                    <title>4x4-grid-layout</title>
                    <g id="Layer_2" data-name="Layer 2"><g id="4x4-grid-layout">
                    <path class="cls-1" d="M495.5 73v335c0 40-32 72-72 72h-335c-40 0-72-32-72-72V73c0-40 32-72 72-72h335c40 0 72 32 72 72zm-216 36h60V49h-60v60zm-48-60h-59v60h59V49zm-143 0c-13 0-24 11-24 24v36h60V49h-36zm299 0v60h60V73c0-13-11-24-24-24h-36zm60 168v-60h-60v60h60zm-275-60v60h59v-60h-59zm-108 0v60h60v-60h-60zm215 0v60h60v-60h-60zm168 167v-59h-60v59h60zm-383-59v59h60v-59h-60zm167 59v-59h-59v59h59zm108 0v-59h-60v59h60zm-108 48h-59v60h59v-60zm108 0h-60v60h60v-60zm-275 0v36c0 13 11 24 24 24h36v-60h-60zm383 0h-60v60h36c13 0 24-11 24-24v-36z"></path>
                    </g></g>
                    </svg>