<svg xmlns="http://www.w3.org/2000/svg" version="1.1" xmlns:xlink="http://www.w3.org/1999/xlink" viewBox="0 0 510 510" preserveAspectRatio="xMidYMid">
                    <defs><style>.cls-1{fill:#595959;}</style></defs>
                    <title>add-polyline</title>
                    <g id="Layer_2" data-name="Layer 2"><g id="add-polyline">
                    <path class="cls-1" d="M434.5 363h50c14 0 26 12 26 26s-12 25-26 25h-50v50c0 14-11 26-25 26s-26-12-26-26v-50h-50c-14 0-25-11-25-25s11-26 25-26h50v-50c0-14 12-25 26-25s25 11 25 25v50zm63-180l-125 75c-10 6-23 4-31-4l-83-83-82 84c-6 5-12 7-18 7-5 0-10-1-14-3l-127-76c-12-7-16-23-9-35 8-12 23-16 35-8l110 65 85-89c5-5 12-7 19-7 6 0 13 2 18 7l88 89 109-65c11-8 26-4 34 8 7 12 3 28-9 35z"></path>
                    </g></g>
                    </svg>