<svg xmlns="http://www.w3.org/2000/svg" version="1.1" xmlns:xlink="http://www.w3.org/1999/xlink" viewBox="0 0 510 510" preserveAspectRatio="xMidYMid">
                    <defs><style>.cls-1{fill:#595959;}</style></defs>
                    <title>add-note</title>
                    <g id="Layer_2" data-name="Layer 2"><g id="add-note">
                    <path class="cls-1" d="M340 50c40 0 73 33 73 73v95c0 13-12 24-24 24-13 0-25-11-25-24v-95c0-13-11-26-24-26h-23c0 27-21 48-48 48h-95c-27 0-49-21-49-47l-22-1c-13 0-25 13-25 26v284c0 13 12 24 25 24h119c13 0 24 12 24 25 0 12-11 24-24 24H103c-40 0-73-33-73-73V123c0-40 33-73 73-73h22c0-27 22-48 49-48h95c27 0 48 21 48 48h23zm-166 0v48h95V50h-95zm190 310v-47c0-13 12-24 25-24 12 0 24 11 24 24v47h47c12 0 24 12 24 24 0 13-12 25-24 25h-47v47c0 12-12 24-24 24-13 0-25-12-25-24v-47h-47c-12 0-24-12-24-25 0-12 12-24 24-24h47z"></path>
                    </g></g>
                    </svg>