<svg xmlns="http://www.w3.org/2000/svg" version="1.1" xmlns:xlink="http://www.w3.org/1999/xlink" viewBox="0 0 510 510" preserveAspectRatio="xMidYMid">
                    <defs><style>.cls-1{fill:#595959;}</style></defs>
                    <title>after-total</title>
                    <g id="Layer_2" data-name="Layer 2"><g id="after-total">
                    <path class="cls-1" d="M3 54c3-13 16-22 29-22h320c19 0 32 12 32 32 0 19-13 32-32 32H118l157 134c7 6 13 16 13 26 0 9-3 19-13 25L118 416h234c19 0 32 12 32 32 0 19-13 32-32 32H32c-13 0-26-10-29-23s0-25 10-35l195-166L13 89C0 80-3 67 3 54zm415 292l-60-58c-8-7-8-19 0-27 4-4 9-5 14-5s10 1 14 5l26 25V179c0-11 9-19 20-19s20 8 20 19v107l26-25c4-4 9-5 14-5s10 1 14 5c8 8 8 20 0 27l-60 58c-4 4-9 6-14 6s-10-2-14-6z"></path>
                    </g></g>
                    </svg>