<svg xmlns="http://www.w3.org/2000/svg" version="1.1" xmlns:xlink="http://www.w3.org/1999/xlink" viewBox="0 0 510 510" preserveAspectRatio="xMidYMid">
                    <defs><style>.cls-1{fill:#595959;}</style></defs>
                    <title>aggregated-view</title>
                    <g id="Layer_2" data-name="Layer 2"><g id="aggregated-view">
                    <path class="cls-1" d="M352 50v24c0 27-21 47-48 47H65c-27 0-48-20-48-47V50C17 23 38 2 65 2h239c27 0 48 21 48 48zM160 361h144c27 0 48 20 48 47v24c0 27-21 48-48 48H160c-27 0-47-21-47-48v-24c0-27 20-47 47-47zm48-180h239c27 0 48 21 48 48v24c0 27-21 48-48 48H208c-27 0-47-21-47-48v-24c0-27 20-48 47-48z"></path>
                    </g></g>
                    </svg>