<svg xmlns="http://www.w3.org/2000/svg" version="1.1" xmlns:xlink="http://www.w3.org/1999/xlink" viewBox="0 0 510 510" preserveAspectRatio="xMidYMid">
                    <defs><style>.cls-1{fill:#595959;}</style></defs>
                    <title>answered-change-request</title>
                    <g id="Layer_2" data-name="Layer 2"><g id="answered-change-request">
                    <path class="cls-1" d="M395.5 361l57 56V85c0-13-11-24-25-24h-342c-14 0-24 11-24 24v244c0 14 10 25 24 25h293c6 0 12 1 17 7zM85.5 11h342c41 0 72 33 72 74v391c0 9-4 19-13 21-10 6-21 2-28-5l-90-90h-283c-42 0-73-32-73-73V85c0-41 31-74 73-74z"></path>
                    </g></g>
                    </svg>