<svg xmlns="http://www.w3.org/2000/svg" version="1.1" xmlns:xlink="http://www.w3.org/1999/xlink" viewBox="0 0 510 510" preserveAspectRatio="xMidYMid">
                    <defs><style>.cls-1{fill:#595959;}</style></defs>
                    <title>asterisk</title>
                    <g id="Layer_2" data-name="Layer 2"><g id="asterisk">
                    <path class="cls-1" d="M298.74 241l147 107c11 8 14 22 6 33-6 7-11 9-19 9-5 0-11-1-15-4l-136-98v168c0 13-11 24-24 24-14 0-24-11-24-24V288l-137 98c-4 3-8 6-13 6-8 0-16-3-20-10-8-10-5-25 5-33l149-108-149-107c-10-8-13-23-5-34 8-10 23-13 33-5l137 99V26c0-14 10-25 24-25 13 0 24 11 24 25v168l136-99c11-8 26-7 34 4s5 25-6 33z"></path>
                    </g></g>
                    </svg>