<svg xmlns="http://www.w3.org/2000/svg" version="1.1" xmlns:xlink="http://www.w3.org/1999/xlink" viewBox="0 0 510 510" preserveAspectRatio="xMidYMid">
                    <defs><style>.cls-1{fill:#595959;}</style></defs>
                    <title>blocked</title>
                    <g id="Layer_2" data-name="Layer 2"><g id="blocked">
                    <path class="cls-1" d="M16.5 250c0-132 108-239 240-239s239 107 239 239-107 240-239 240-240-108-240-240zm240-191c-43 0-84 14-116 39l269 266c24-32 38-71 38-113 0-105-86-192-191-192zm-150 73c-26 33-42 73-42 118 0 105 86 192 191 192 46 0 88-16 121-43z"></path>
                    </g></g>
                    </svg>