<svg xmlns="http://www.w3.org/2000/svg" version="1.1" xmlns:xlink="http://www.w3.org/1999/xlink" viewBox="0 0 510 510" preserveAspectRatio="xMidYMid">
                    <defs><style>.cls-1{fill:#595959;}</style></defs>
                    <title>bold</title>
                    <g id="Layer_2" data-name="Layer 2"><g id="bold">
                    <path class="cls-1" d="M68.608 446V36c0-19 15-34 34-34h165c54 0 106 29 129 78 26 57 11 111-21 148 45 26 74 73 68 131-7 67-73 121-141 121h-200c-19 0-34-15-34-34zm201-239c30 0 59-17 68-45 16-47-19-91-64-91h-137v136h133zm-133 205h167c30 0 59-18 68-46 16-47-19-91-64-91h-171v137z"></path>
                    </g></g>
                    </svg>