<svg xmlns="http://www.w3.org/2000/svg" version="1.1" xmlns:xlink="http://www.w3.org/1999/xlink" viewBox="0 0 510 510" preserveAspectRatio="xMidYMid">
                    <defs><style>.cls-1{fill:#595959;}</style></defs>
                    <title>bottom</title>
                    <g id="Layer_2" data-name="Layer 2"><g id="bottom">
                    <path class="cls-1" d="M468.5 121l-189 189c-13 13-32 13-44 0l-190-190c-13-13-13-32 0-44 13-13 31-13 44 0l168 167 166-166c13-13 32-13 45 0s13 31 0 44zm43 327c0 18-14 31-36 31h-437c-22 0-36-13-36-31 0-19 14-33 36-33h437c22 0 36 14 36 33z"></path>
                    </g></g>
                    </svg>