<svg xmlns="http://www.w3.org/2000/svg" version="1.1" xmlns:xlink="http://www.w3.org/1999/xlink" viewBox="0 0 510 510" preserveAspectRatio="xMidYMid">
                    <defs><style>.cls-1{fill:#595959;}</style></defs>
                    <title>bulleting-with-numbers</title>
                    <g id="Layer_2" data-name="Layer 2"><g id="bulleting-with-numbers">
                    <path class="cls-1" d="M53 157c-15 0-25-10-25-26V80c-8 0-13-3-19-8C-1 62-1 46 9 36l26-26c7-7 18-10 28-4s16 13 16 23v102c0 16-10 26-26 26zm434-55H179c-16 0-26-10-26-26s10-26 26-26h308c16 0 26 10 26 26s-10 26-26 26zM179 233l308-3c16 0 26 10 26 26 0 15-10 25-26 25l-308 3c-16 0-26-10-26-26 0-15 10-25 26-25zm0 175l308 2c16 0 26 8 26 24s-10 26-26 26H179c-16 0-26-10-26-26s10-26 26-26zm-74-189c2 15-5 29-13 38l-29 29h16c16 0 26 10 26 25 0 16-10 26-26 26H28c-16 0-26-10-26-26v-5c0-20 7-42 23-55l18-17H28c-16 0-26-10-26-25 0-16 10-26 26-26h31c20 0 43 16 46 36zM2 485c0-15 10-25 26-25h25c-15 0-25-10-25-26s10-26 25-26H28c-16 0-26-10-26-25 0-16 10-26 26-26h25c14 0 27 6 36 16 14 14 16 32 16 35 0 7-9 13-9 27 0 13 7 16 9 25 0 2-2 21-16 35-14 15-33 16-36 16H28c-16 0-26-10-26-26z"></path>
                    </g></g>
                    </svg>