<svg xmlns="http://www.w3.org/2000/svg" version="1.1" xmlns:xlink="http://www.w3.org/1999/xlink" viewBox="0 0 510 510" preserveAspectRatio="xMidYMid">
                    <defs><style>.cls-1{fill:#595959;}</style></defs>
                    <title>business-partner-verified</title>
                    <g id="Layer_2" data-name="Layer 2"><g id="business-partner-verified">
                    <path class="cls-1" d="M358.75 138l-48-47c-9-10-9-25 0-34s24-9 34 0l31 31 79-79c9-10 24-10 33 0 10 9 10 24 0 33l-95 96c-9 9-24 9-34 0zm43 154c54 12 93 60 93 117 0 39-32 71-71 71h-120c-13 0-24-11-24-24 0-14 11-24 24-24h120c13 0 24-10 24-23 0-39-34-73-72-73h-72c-13 0-24-10-24-24 0-12 8-20 19-23-12-13-19-29-19-48 0-39 32-73 71-73s73 34 73 73c0 20-8 38-22 51zm-241-124c39 0 71 34 71 73 0 19-7 35-19 48 11 3 19 11 19 23 0 14-10 24-23 24h-72c-39 0-72 34-72 73 0 13 10 23 23 23h120c13 0 24 10 24 24 0 13-11 24-24 24h-120c-39 0-71-32-71-71 0-57 39-105 93-117-14-13-22-31-22-51 0-39 34-73 73-73zm190 97c14 0 25-11 25-24s-11-24-25-24c-13 0-22 11-22 24s9 24 22 24zm-190 0c13 0 24-11 24-24s-11-24-24-24c-14 0-24 11-24 24s10 24 24 24z"></path>
                    </g></g>
                    </svg>