<svg xmlns="http://www.w3.org/2000/svg" version="1.1" xmlns:xlink="http://www.w3.org/1999/xlink" viewBox="0 0 510 510" preserveAspectRatio="xMidYMid">
                    <defs><style>.cls-1{fill:#595959;}</style></defs>
                    <title>cell-lock</title>
                    <g id="Layer_2" data-name="Layer 2"><g id="cell-lock">
                    <path class="cls-1" d="M379.5 183c41 0 75 34 75 74v148c0 42-34 75-75 75h-247c-42 0-75-33-75-75V257c0-40 33-74 75-74v-75c0-68 55-124 123-124s124 56 124 124v75zm-198-75v75h149v-75c0-40-34-74-75-74s-74 34-74 74zm226 266v-83c0-37-31-67-67-67h-169c-38 0-68 30-68 67v83c0 36 30 67 68 67h169c36 0 67-31 67-67z"></path>
                    </g></g>
                    </svg>