<svg xmlns="http://www.w3.org/2000/svg" version="1.1" xmlns:xlink="http://www.w3.org/1999/xlink" viewBox="0 0 510 510" preserveAspectRatio="xMidYMid">
                    <defs><style>.cls-1{fill:#595959;}</style></defs>
                    <title>change-request</title>
                    <g id="Layer_2" data-name="Layer 2"><g id="change-request">
                    <path class="cls-1" d="M91.5 49v384h331V49h-331zm353 431h-376c-13 0-24-11-24-24V26c0-13 11-24 24-24h376c14 0 24 11 24 24v430c0 13-10 24-24 24zm-134-235l-102 103c-5 5-11 7-17 7h-31c-9 0-12-4-12-12l1-30c0-6 2-12 7-17l103-102c5-5 9-8 16-8 6 0 12 3 17 8l18 18c9 9 9 24 0 33zm41-111l19 19c9 9 9 23 0 32l-12 12c-10 9-23 9-32 0l-19-19c-10-9-10-22 0-32l12-12c9-9 23-9 32 0z"></path>
                    </g></g>
                    </svg>