<svg xmlns="http://www.w3.org/2000/svg" version="1.1" xmlns:xlink="http://www.w3.org/1999/xlink" viewBox="0 0 510 510" preserveAspectRatio="xMidYMid">
                    <defs><style>.cls-1{fill:#595959;}</style></defs>
                    <title>checklist-item</title>
                    <g id="Layer_2" data-name="Layer 2"><g id="checklist-item">
                    <path class="cls-1" d="M450.5 403l-180 103c-9 5-20 5-29 0l-180-103c-28-16-45-46-45-78V61c0-33 27-60 60-60h359c33 0 60 27 60 60v264c0 32-17 62-45 78zm-54-220c15-15 15-38 0-53s-38-15-53 0l-118 117-55-55c-15-15-38-15-53 0s-15 38 0 53l82 82c7 7 16 11 26 11s20-4 27-11z"></path>
                    </g></g>
                    </svg>