<svg xmlns="http://www.w3.org/2000/svg" version="1.1" xmlns:xlink="http://www.w3.org/1999/xlink" viewBox="0 0 510 510" preserveAspectRatio="xMidYMid">
                    <defs><style>.cls-1{fill:#595959;}</style></defs>
                    <title>column-unselected</title>
                    <g id="Layer_2" data-name="Layer 2"><g id="column-unselected">
                    <path class="cls-1" d="M16.5 250c0-132 108-239 239-239 132 0 239 107 239 239 0 131-107 239-239 239-131 0-239-108-239-239zm239-191c-105 0-191 86-191 191s86 192 191 192 191-87 191-192-86-191-191-191zm-29 287V156c0-13 11-24 24-24s24 11 24 24v190c0 13-11 24-24 24s-24-11-24-24zm144 0c0 13-11 24-24 24s-24-11-24-24V156c0-13 11-24 24-24s24 11 24 24v190zm-214-214c13 0 24 11 24 24v190c0 13-11 24-24 24s-24-11-24-24V156c0-13 11-24 24-24z"></path>
                    </g></g>
                    </svg>