<svg xmlns="http://www.w3.org/2000/svg" version="1.1" xmlns:xlink="http://www.w3.org/1999/xlink" viewBox="0 0 510 510" preserveAspectRatio="xMidYMid">
                    <defs><style>.cls-1{fill:#595959;}</style></defs>
                    <title>column-selected</title>
                    <g id="Layer_2" data-name="Layer 2"><g id="column-selected">
                    <path class="cls-1" d="M375.5 346V155c0-14-11-23-24-23-14 0-23 9-23 23v191c0 14 9 24 23 24 13 0 24-10 24-24zm-97 0V155c0-14-10-23-24-23-13 0-23 9-23 23v191c0 14 10 24 23 24 14 0 24-10 24-24zm-93 0V155c0-14-11-23-24-23-14 0-25 9-25 23v191c0 14 11 24 25 24 13 0 24-10 24-24zm71-336c132 0 239 107 239 240 0 132-107 239-239 239-133 0-240-107-240-239 0-133 107-240 240-240z"></path>
                    </g></g>
                    </svg>