<svg xmlns="http://www.w3.org/2000/svg" version="1.1" xmlns:xlink="http://www.w3.org/1999/xlink" viewBox="0 0 510 510" preserveAspectRatio="xMidYMid">
                    <defs><style>.cls-1{fill:#595959;}</style></defs>
                    <title>component</title>
                    <g id="Layer_2" data-name="Layer 2"><g id="component">
                    <path class="cls-1" d="M423.5 144c-10 0-21-2-30-6l-72 72c4 9 6 20 6 31 0 14-2 29-10 40l42 57c6-1 11-1 16-1 40 0 73 31 73 71s-33 72-73 72-71-32-71-72c0-16 6-31 15-43l-41-56c-7 3-14 4-22 4-17 0-34-7-46-18l-50 31v11c0 40-31 71-71 71s-72-31-72-71 32-72 72-72c19 0 35 6 48 18l48-29c-1-4-1-9-1-13 0-11 4-22 8-31l-73-72c-10 4-19 6-30 6-40 0-72-30-72-70 0-41 32-73 72-73s71 32 71 73c0 10-3 21-7 30l73 72c9-4 20-6 30-6 11 0 22 2 31 6l72-72c-4-9-8-20-8-30 0-41 32-73 72-73 41 0 73 32 73 73 0 40-32 70-73 70z"></path>
                    </g></g>
                    </svg>