<svg xmlns="http://www.w3.org/2000/svg" version="1.1" xmlns:xlink="http://www.w3.org/1999/xlink" viewBox="0 0 510 510" preserveAspectRatio="xMidYMid">
                    <defs><style>.cls-1{fill:#595959;}</style></defs>
                    <title>confirmed</title>
                    <g id="Layer_2" data-name="Layer 2"><g id="confirmed">
                    <path class="cls-1" d="M256 2c131 0 239 108 239 239S387 480 256 480 17 372 17 241 125 2 256 2zm0 430c105 0 191-86 191-191S361 50 256 50 65 136 65 241s86 191 191 191zm0-45c-80 0-146-66-146-146S176 96 256 96s145 65 145 145-65 146-145 146zm0-207c-35 0-61 26-61 61s26 61 61 61 61-26 61-61-26-61-61-61z"></path>
                    </g></g>
                    </svg>