<svg xmlns="http://www.w3.org/2000/svg" version="1.1" xmlns:xlink="http://www.w3.org/1999/xlink" viewBox="0 0 510 510" preserveAspectRatio="xMidYMid">
                    <defs><style>.cls-1{fill:#595959;}</style></defs>
                    <title>consumer</title>
                    <g id="Layer_2" data-name="Layer 2"><g id="consumer">
                    <path class="cls-1" d="M280 269h190c14 0 25 11 25 24v163c0 13-11 24-25 24-13 0-24-11-24-24V317h-60v139c0 13-10 24-24 24-13 0-22-11-22-24V317h-60v139c0 13-11 24-24 24-14 0-24-11-24-24V317h-60v139c0 13-11 24-24 24-14 0-23-11-23-24V317H65v139c0 13-11 24-24 24s-24-11-24-24V293c0-13 11-24 24-24h191V27c0-14 10-25 24-25 13 0 24 11 24 25v242z"></path>
                    </g></g>
                    </svg>