<svg xmlns="http://www.w3.org/2000/svg" version="1.1" xmlns:xlink="http://www.w3.org/1999/xlink" viewBox="0 0 510 510" preserveAspectRatio="xMidYMid">
                    <defs><style>.cls-1{fill:#595959;}</style></defs>
                    <title>created</title>
                    <g id="Layer_2" data-name="Layer 2"><g id="created">
                    <path class="cls-1" d="M112.5 432h288V49h-159l-10 10v61c0 27-20 48-47 48h-62l-10 10v254zm328-424c5 5 7 11 7 17v431c0 12-9 24-23 24h-336c-15 0-24-12-24-24V168c0-6 1-10 7-16l144-144c5-5 9-7 16-7h191c7 0 12 2 18 7zm-222 328l-48-49c-10-9-10-24 0-33 9-9 24-9 33 0l31 32 79-80c9-10 25-10 35 0 9 9 9 25 0 35l-97 95c-9 9-24 9-33 0z"></path>
                    </g></g>
                    </svg>