<svg xmlns="http://www.w3.org/2000/svg" version="1.1" xmlns:xlink="http://www.w3.org/1999/xlink" viewBox="0 0 510 510" preserveAspectRatio="xMidYMid">
                    <defs><style>.cls-1{fill:#595959;}</style></defs>
                    <title>data-access</title>
                    <g id="Layer_2" data-name="Layer 2"><g id="data-access">
                    <path class="cls-1" d="M494 131c1 3 1 5 1 8s0 7-1 9c-2 3-4 6-6 8l-94 94c-4 4-10 7-17 7s-12-3-16-7c-10-9-10-24 0-33l52-54H41c-13 0-24-11-24-24s11-23 24-23h372l-52-54c-10-9-10-24 0-33 9-10 24-10 33 0l94 94c3 3 4 5 6 8zM99 358h372c13 0 24 11 24 24s-11 24-24 24H99l52 53c10 9 10 25 0 34-4 4-9 7-16 7s-13-3-17-7l-94-94c-3-2-4-5-6-8-1-2-1-6-1-9s0-7 1-9c2-3 4-4 6-7v-1l94-94c9-10 24-10 33 0 10 9 10 25 0 34z"></path>
                    </g></g>
                    </svg>