<svg xmlns="http://www.w3.org/2000/svg" version="1.1" xmlns:xlink="http://www.w3.org/1999/xlink" viewBox="0 0 510 510" preserveAspectRatio="xMidYMid">
                    <defs><style>.cls-1{fill:#595959;}</style></defs>
                    <title>debit-card</title>
                    <g id="Layer_2" data-name="Layer 2"><g id="debit-card">
                    <path class="cls-1" d="M460.5 404V251h-408v153c0 14 11 25 25 25h357c15 0 26-11 26-25zm-408-256v25h408v-25c0-14-11-25-26-25h-357c-14 0-25 11-25 25zm25-76h357c43 0 76 33 76 76v256c0 43-33 76-76 76h-357c-43 0-76-33-76-76V148c0-43 33-76 76-76z"></path>
                    </g></g>
                    </svg>