<svg xmlns="http://www.w3.org/2000/svg" version="1.1" xmlns:xlink="http://www.w3.org/1999/xlink" viewBox="0 0 510 510" preserveAspectRatio="xMidYMid">
                    <defs><style>.cls-1{fill:#595959;}</style></defs>
                    <title>decrease-indent</title>
                    <g id="Layer_2" data-name="Layer 2"><g id="decrease-indent">
                    <path class="cls-1" d="M482.058 83.836H86.83c-15.968 0-27.945-12.974-27.945-28.943 0-16.967 11.977-27.946 27.945-27.946h395.228c16.967 0 29.942 10.979 29.942 27.946 0 15.969-12.975 28.943-29.942 28.943zM285.442 225.56h196.616c16.967 0 29.942 10.979 29.942 26.948 0 16.967-12.975 27.945-29.942 27.945H285.442c-15.968 0-28.943-10.978-28.943-27.945 0-15.969 12.975-26.948 28.943-26.948zM86.83 422.175h395.228c16.967 0 29.942 12.975 29.942 28.944 0 16.967-12.975 27.945-29.942 27.945H86.83c-15.968 0-27.945-10.978-27.945-27.945 0-15.969 11.977-28.944 27.945-28.944zm9.98-69.863c-6.985 0-14.97-2.994-19.96-7.985L8.982 274.464c-.998-.998-.998-2.994-2.994-3.992-.998-.998-1.996-1.996-2.994-4.99C.998 261.488 0 258.494 0 254.501s.998-6.985 2.994-9.98c.998-2.994 1.996-4.99 2.994-7.984 1.996-.998 1.996 0 2.994-.998l67.868-69.864c11.977-10.978 28.943-10.978 40.92 0 10.979 10.979 10.979 27.946 0 38.924l-21.957 21.958h73.856c14.97 0 28.943 12.974 28.943 27.945s-13.973 28.943-28.943 28.943H95.813l21.957 19.961c10.979 10.979 10.979 28.944 0 40.92-4.99 4.99-12.975 7.985-20.96 7.985z"></path>
                    </g></g>
                    </svg>