<svg xmlns="http://www.w3.org/2000/svg" version="1.1" xmlns:xlink="http://www.w3.org/1999/xlink" viewBox="0 0 510 510" preserveAspectRatio="xMidYMid">
                    <defs><style>.cls-1{fill:#595959;}</style></defs>
                    <title>dehydrator</title>
                    <g id="Layer_2" data-name="Layer 2"><g id="dehydrator">
                    <path class="cls-1" d="M280 289h-48c-13 0-24-11-24-24s11-24 24-24h48c13 0 24 11 24 24s-11 24-24 24zM89 2h334c40 0 72 32 72 72v143c0 40-32 72-72 72h-48c-13 0-24-11-24-24s11-24 24-24h48c13 0 24-11 24-24V74c0-13-11-24-24-24H89c-13 0-24 11-24 24v143c0 13 11 24 24 24h48c14 0 23 11 23 24s-9 24-23 24H89c-40 0-72-32-72-72V74C17 34 49 2 89 2zm148 363c10-15 28-15 38 0 12 22 29 52 29 67 0 27-21 48-48 48s-48-21-48-48c0-17 15-45 29-67zm-168 0c9-15 29-15 39 0 12 22 28 52 28 67 0 27-20 48-47 48s-48-21-48-48c0-17 13-45 28-67zm335 0c10-15 30-15 39 0 12 22 28 52 28 67 0 27-21 48-48 48s-48-21-48-48c0-17 15-45 29-67z"></path>
                    </g></g>
                    </svg>