<svg xmlns="http://www.w3.org/2000/svg" version="1.1" xmlns:xlink="http://www.w3.org/1999/xlink" viewBox="0 0 510 510" preserveAspectRatio="xMidYMid">
                    <defs><style>.cls-1{fill:#595959;}</style></defs>
                    <title>dispatched-deallocate</title>
                    <g id="Layer_2" data-name="Layer 2"><g id="dispatched-deallocate">
                    <path class="cls-1" d="M256 2c131 0 239 108 239 239S387 480 256 480 17 372 17 241 125 2 256 2zM65 241c0 105 86 191 191 191s191-86 191-191S361 50 256 50 65 136 65 241zm323-21c0 1-1 6-1 8l-6 8-85 89c-4 5-11 8-17 8s-12-3-18-7c-9-9-9-25 0-34l48-50c-2 0-66-6-102 26-16 14-24 36-24 64 0 13-10 24-23 24-14 0-24-11-24-24 0-43 13-76 40-100 43-39 105-39 128-38l-40-38c-9-10-11-26-1-35 9-9 24-9 33 0l85 81c4 4 7 11 7 16v2z"></path>
                    </g></g>
                    </svg>