<svg xmlns="http://www.w3.org/2000/svg" version="1.1" xmlns:xlink="http://www.w3.org/1999/xlink" viewBox="0 0 510 510" preserveAspectRatio="xMidYMid">
                    <defs><style>.cls-1{fill:#595959;}</style></defs>
                    <title>draw-freehand</title>
                    <g id="Layer_2" data-name="Layer 2"><g id="draw-freehand">
                    <path class="cls-1" d="M99 357L367 87c9-9 27-9 36 0 10 10 10 27 0 37L135 393c-5 5-12 7-19 7-6 0-12-2-17-7-9-9-9-27 0-36zM458 0c22 0 38 16 38 38 0 21-16 39-38 39-21 0-39-18-39-39 0-22 18-38 39-38zM54 404c21 0 38 17 38 38 0 22-17 38-38 38-22 0-38-16-38-38 0-21 16-38 38-38z"></path>
                    </g></g>
                    </svg>