<svg xmlns="http://www.w3.org/2000/svg" version="1.1" xmlns:xlink="http://www.w3.org/1999/xlink" viewBox="0 0 510 510" preserveAspectRatio="xMidYMid">
                    <defs><style>.cls-1{fill:#595959;}</style></defs>
                    <title>draw-circle</title>
                    <g id="Layer_2" data-name="Layer 2"><g id="draw-circle">
                    <path class="cls-1" d="M460.5 76c-21 0-38-17-38-38s17-37 38-37 37 16 37 37-16 38-37 38zm-408 1c-21 0-38-17-38-38s17-38 38-38 37 17 37 38-16 38-37 38zm205-54c119 0 216 97 216 216s-97 216-216 216-216-97-216-216 97-216 216-216zm166 216c0-92-74-166-166-166-91 0-166 74-166 166s75 166 166 166c92 0 166-74 166-166zm-369 163c21 0 38 17 38 38s-17 38-38 38-38-17-38-38 17-38 38-38zm368 40c0-21 16-37 37-37s38 16 38 37-17 38-38 38-37-17-37-38z"></path>
                    </g></g>
                    </svg>