<svg xmlns="http://www.w3.org/2000/svg" version="1.1" xmlns:xlink="http://www.w3.org/1999/xlink" viewBox="0 0 510 510" preserveAspectRatio="xMidYMid">
                    <defs><style>.cls-1{fill:#595959;}</style></defs>
                    <title>empty-trailer</title>
                    <g id="Layer_2" data-name="Layer 2"><g id="empty-trailer">
                    <path class="cls-1" d="M39 141h433c14 0 25 10 25 24v144c0 14-11 25-25 25H347c3 8 5 15 5 24 0 40-32 72-72 72s-72-32-72-72c0-9 2-16 4-24h-33c3 8 4 15 4 24 0 40-32 72-72 72s-72-32-72-72c0-9 2-16 5-24h-5c-14 0-24-11-24-25V165c0-14 10-24 24-24zm24 145h385v-96H63v96zm217 96c14 0 24-11 24-24 0-14-10-24-24-24-13 0-25 10-25 24 0 13 12 24 25 24zm-169 0c14 0 25-11 25-24 0-14-11-24-25-24s-24 10-24 24c0 13 10 24 24 24z"></path>
                    </g></g>
                    </svg>