<svg xmlns="http://www.w3.org/2000/svg" version="1.1" xmlns:xlink="http://www.w3.org/1999/xlink" viewBox="0 0 510 510" preserveAspectRatio="xMidYMid">
                    <defs><style>.cls-1{fill:#595959;}</style></defs>
                    <title>exclude-segment</title>
                    <g id="Layer_2" data-name="Layer 2"><g id="exclude-segment">
                    <path class="cls-1" d="M464.5 410V133c0-14-9-24-23-24h-371c-14 0-23 10-23 24v277c0 14 9 23 23 23h371c14 0 23-9 23-23zM70.5 63h371c39 0 70 30 70 70v277c0 40-31 70-70 70h-371c-40 0-70-30-70-70V133c0-40 30-70 70-70zm270 155l-52 53 52 54c10 9 10 23 0 33-9 9-22 9-31 0l-54-54-53 54c-10 9-24 9-33 0-9-10-9-24 0-33l54-54-54-53c-9-10-9-24 0-33s23-9 33 0l53 54 54-54c9-9 22-9 31 0 10 9 10 23 0 33z"></path>
                    </g></g>
                    </svg>