<svg xmlns="http://www.w3.org/2000/svg" version="1.1" xmlns:xlink="http://www.w3.org/1999/xlink" viewBox="0 0 510 510" preserveAspectRatio="xMidYMid">
                    <defs><style>.cls-1{fill:#595959;}</style></defs>
                    <title>face-neutral</title>
                    <g id="Layer_2" data-name="Layer 2"><g id="face-neutral">
                    <path class="cls-1" d="M256 0c132 0 240 108 240 240S388 480 256 480 16 372 16 240 124 0 256 0zm192 240c0-106-86-192-192-192S64 134 64 240s86 192 192 192 192-86 192-192zm-276-24c-20 0-36-16-36-36s16-36 36-36 36 16 36 36-16 36-36 36zm132-36c0-20 16-36 36-36s36 16 36 36-16 36-36 36-36-16-36-36zM184 288h144c14 0 24 10 24 24s-10 24-24 24H184c-14 0-24-10-24-24s10-24 24-24z"></path>
                    </g></g>
                    </svg>