<svg xmlns="http://www.w3.org/2000/svg" version="1.1" xmlns:xlink="http://www.w3.org/1999/xlink" viewBox="0 0 510 510" preserveAspectRatio="xMidYMid">
                    <defs><style>.cls-1{fill:#595959;}</style></defs>
                    <title>face-skeptical</title>
                    <g id="Layer_2" data-name="Layer 2"><g id="face-skeptical">
                    <path class="cls-1" d="M16 240C16 108 124 0 256 0s240 108 240 240-108 240-240 240S16 372 16 240zm240 192c106 0 192-86 192-192S362 48 256 48 64 134 64 240s86 192 192 192zm48-252c0-20 16-36 36-36s36 16 36 36-16 36-36 36-36-16-36-36zm-132 36c-20 0-36-16-36-36s16-36 36-36 36 16 36 36-16 36-36 36zm6 90l138-41c14-4 25 2 29 16s-2 26-16 30l-138 41c-14 4-25-2-29-16s2-26 16-30z"></path>
                    </g></g>
                    </svg>