<svg xmlns="http://www.w3.org/2000/svg" version="1.1" xmlns:xlink="http://www.w3.org/1999/xlink" viewBox="0 0 510 510" preserveAspectRatio="xMidYMid">
                    <defs><style>.cls-1{fill:#595959;}</style></defs>
                    <title>firmed</title>
                    <g id="Layer_2" data-name="Layer 2"><g id="firmed">
                    <path class="cls-1" d="M256 0c131 0 240 109 240 240 0 132-109 240-240 240-132 0-240-108-240-240C16 109 124 0 256 0zM64 240c0 106 86 192 192 192s191-86 191-192S362 49 256 49 64 134 64 240zm264-35c15 7 24 23 24 41v72c0 27-21 48-48 48h-96c-27 0-49-21-49-48v-71c0-17 10-35 24-42v-18c0-45 38-78 83-71 37 4 62 36 62 72v17zm-96-6h48v-24c0-15-9-25-24-25s-24 10-24 25v24zm-24 119h96v-72h-96v72z"></path>
                    </g></g>
                    </svg>