<svg xmlns="http://www.w3.org/2000/svg" version="1.1" xmlns:xlink="http://www.w3.org/1999/xlink" viewBox="0 0 510 510" preserveAspectRatio="xMidYMid">
                    <defs><style>.cls-1{fill:#595959;}</style></defs>
                    <title>gas</title>
                    <g id="Layer_2" data-name="Layer 2"><g id="gas">
                    <path class="cls-1" d="M252.916 0c8-2 17 0 23 6 7 7 164 169 158 311-4 97-81 173-177 173-98 0-178-78-178-174 0-53 37-105 75-160 31-44 63-90 82-141 3-8 9-13 17-15zm39 161c0 63-18 114-40 114s-40-51-40-114c0-1 1-3 1-4-6 9-13 18-19 27-35 51-66 94-66 132 0 69 58 125 129 125 69 0 125-55 128-126 3-80-59-172-103-227 6 20 10 45 10 73z"></path>
                    </g></g>
                    </svg>