<svg xmlns="http://www.w3.org/2000/svg" version="1.1" xmlns:xlink="http://www.w3.org/1999/xlink" viewBox="0 0 510 510" preserveAspectRatio="xMidYMid">
                    <defs><style>.cls-1{fill:#595959;}</style></defs>
                    <title>gender-male-and-female</title>
                    <g id="Layer_2" data-name="Layer 2"><g id="gender-male-and-female">
                    <path class="cls-1" d="M192.5 374v-28c-58-12-102-63-102-124 0-70 57-127 127-127 27 0 51 9 71 23l47-47h-46c-14 0-25-11-25-25s11-25 25-25h103c19 0 29 10 29 29v103c0 14-11 25-25 25s-25-11-25-25v-46l-48 47c13 20 20 43 20 68 0 61-43 112-101 124v28h50c15 0 25 10 25 25s-10 26-25 26h-50v50c0 15-10 25-25 25s-25-10-25-25v-50h-51c-15 0-25-11-25-26s10-25 25-25h51zm25-228c-42 0-77 34-77 76s35 76 77 76 76-34 76-76-34-76-76-76z"></path>
                    </g></g>
                    </svg>