<svg xmlns="http://www.w3.org/2000/svg" version="1.1" xmlns:xlink="http://www.w3.org/1999/xlink" viewBox="0 0 510 510" preserveAspectRatio="xMidYMid">
                    <defs><style>.cls-1{fill:#595959;}</style></defs>
                    <title>grip</title>
                    <g id="Layer_2" data-name="Layer 2"><g id="grip">
                    <path class="cls-1" d="M187.5 1c22 0 41 19 41 42 0 22-19 41-41 41-23 0-42-19-42-41 0-23 19-42 42-42zm137 83c-22 0-42-19-42-41 0-23 20-42 42-42s42 19 42 42c0 22-20 41-42 41zm0 54c22 0 42 20 42 42s-20 42-42 42-42-20-42-42 20-42 42-42zm0 139c22 0 42 20 42 42s-20 42-42 42-42-20-42-42 20-42 42-42zm0 138c22 0 42 19 42 41 0 23-20 42-42 42s-42-19-42-42c0-22 20-41 42-41zm-137-277c22 0 41 20 41 42s-19 42-41 42c-23 0-42-20-42-42s19-42 42-42zm0 139c22 0 41 20 41 42s-19 42-41 42c-23 0-42-20-42-42s19-42 42-42zm0 138c22 0 41 19 41 41 0 23-19 42-41 42-23 0-42-19-42-42 0-22 19-41 42-41z"></path>
                    </g></g>
                    </svg>