<svg xmlns="http://www.w3.org/2000/svg" version="1.1" xmlns:xlink="http://www.w3.org/1999/xlink" viewBox="0 0 510 510" preserveAspectRatio="xMidYMid">
                    <defs><style>.cls-1{fill:#595959;}</style></defs>
                    <title>indicator-groups</title>
                    <g id="Layer_2" data-name="Layer 2"><g id="indicator-groups">
                    <path class="cls-1" d="M184 56v66c0 26-21 46-47 46H74l-7 7v274c0 12-11 25-24 25-12 0-23-13-23-25V164c0-5 3-12 7-16L164 7c5-4 11-7 18-7h193c12 0 23 12 23 24v188c0 13-11 24-23 24s-23-11-23-24V47H192zm132 206c97 0 176 80 176 177v17c0 12-11 23-24 23-12 0-23-11-23-23v-17c0-71-58-130-129-130-72 0-130 59-130 130v17c0 12-12 23-24 23-13 0-24-11-24-23v-17c0-97 80-177 178-177zm-10 133l77-45c15-10 33 8 24 23l-46 77c-12 21-41 29-60 15-2-1-4-2-6-4-1-1-3-4-4-5-14-19-5-48 15-61z"></path>
                    </g></g>
                    </svg>