<svg xmlns="http://www.w3.org/2000/svg" version="1.1" xmlns:xlink="http://www.w3.org/1999/xlink" viewBox="0 0 510 510" preserveAspectRatio="xMidYMid">
                    <defs><style>.cls-1{fill:#595959;}</style></defs>
                    <title>italic</title>
                    <g id="Layer_2" data-name="Layer 2"><g id="italic">
                    <path class="cls-1" d="M260.5 441c21 0 34 13 34 34 0 22-13 36-34 36h-5c-55 0-98-54-84-110l42-170h-25c-24 0-38-14-38-36 0-21 14-35 36-35h69c10 0 22 4 29 14 7 7 7 21 7 31l-53 215c-3 10 7 21 22 21zm48-439c28 0 53 24 53 52 0 29-25 53-53 53-29 0-53-24-53-53 0-28 24-52 53-52z"></path>
                    </g></g>
                    </svg>