<svg xmlns="http://www.w3.org/2000/svg" version="1.1" xmlns:xlink="http://www.w3.org/1999/xlink" viewBox="0 0 510 510" preserveAspectRatio="xMidYMid">
                    <defs><style>.cls-1{fill:#595959;}</style></defs>
                    <title>keep-segment</title>
                    <g id="Layer_2" data-name="Layer 2"><g id="keep-segment">
                    <path class="cls-1" d="M212.5 317l123-124c9-9 23-9 32 0 9 10 9 24 0 33l-139 139c-9 9-23 9-32 0l-47-46c-9-9-9-23 0-32 10-10 24-10 33 0zm252 93V133c0-14-9-24-23-24h-371c-14 0-23 10-23 24v277c0 14 9 23 23 23h371c14 0 23-9 23-23zM70.5 63h371c39 0 70 30 70 70v277c0 40-31 70-70 70h-371c-40 0-70-30-70-70V133c0-40 30-70 70-70z"></path>
                    </g></g>
                    </svg>