<svg xmlns="http://www.w3.org/2000/svg" version="1.1" xmlns:xlink="http://www.w3.org/1999/xlink" viewBox="0 0 510 510" preserveAspectRatio="xMidYMid">
                    <defs><style>.cls-1{fill:#595959;}</style></defs>
                    <title>late</title>
                    <g id="Layer_2" data-name="Layer 2"><g id="late">
                    <path class="cls-1" d="M434.5 132c37 37 61 88 61 145 0 112-92 203-204 203-82 0-152-48-184-119h-43c-13 0-24-10-24-24 0-13 11-24 24-24h27c-2-4 0-9-2-13h-49c-13 0-24-11-24-24s11-24 24-24h49c2-5 2-9 3-15h-28c-13 0-24-10-24-24 0-13 11-24 24-24h44c29-61 88-107 159-115V50h-68c-14 0-24-10-24-24 0-13 10-24 24-24h189c13 0 24 11 24 24 0 14-11 24-24 24h-73v24c29 4 57 14 81 29l9-14c9-11 25-12 35-4 11 8 11 24 3 35zm-143 300c85 0 156-69 156-155 0-85-71-156-156-156-86 0-155 71-155 156 0 86 69 155 155 155zm-24-249c0-14 10-24 24-24 13 0 24 10 24 24v65h85c14 0 24 11 24 24s-10 24-24 24h-109c-14 0-24-11-24-24v-89z"></path>
                    </g></g>
                    </svg>