<svg xmlns="http://www.w3.org/2000/svg" version="1.1" xmlns:xlink="http://www.w3.org/1999/xlink" viewBox="0 0 510 510" preserveAspectRatio="xMidYMid">
                    <defs><style>.cls-1{fill:#595959;}</style></defs>
                    <title>layer</title>
                    <g id="Layer_2" data-name="Layer 2"><g id="layer">
                    <path class="cls-1" d="M252 14l260 160v127L253 467l-126-79L0 306V166zm2 140l76-48-80-50-76 47zm-122 73l86-52-79-50-86 53zm156-51l89 57 80-49-91-56zm-122 74l88 56 87-52-88-56zm-51 11l-82-53v75l82 52v-74zm278 74l86-55v-65l-86 52v68zm-156 5l-89-58v74l89 56v-72zm124-54l-92 54v73l92-58v-69z"></path>
                    </g></g>
                    </svg>