<svg xmlns="http://www.w3.org/2000/svg" version="1.1" xmlns:xlink="http://www.w3.org/1999/xlink" viewBox="0 0 510 510" preserveAspectRatio="xMidYMid">
                    <defs><style>.cls-1{fill:#595959;}</style></defs>
                    <title>legal-section</title>
                    <g id="Layer_2" data-name="Layer 2"><g id="legal-section">
                    <path class="cls-1" d="M447 408V74c0-13-11-24-24-24H89c-13 0-24 11-24 24v334c0 13 11 24 24 24h334c13 0 24-11 24-24zM89 2h334c40 0 72 32 72 72v334c0 40-32 72-72 72H89c-40 0-72-32-72-72V74C17 34 49 2 89 2zm263 96H160c-27 0-47 20-47 47v24c0 27 20 48 47 48h192c27 0 47-21 47-48v-24c0-27-20-47-47-47zm0 47v24H160v-24h192zm0 120H160c-27 0-47 22-47 48v24c0 27 20 48 47 48h192c27 0 47-21 47-48v-24c0-26-20-48-47-48zm0 48v24H160v-24h192z"></path>
                    </g></g>
                    </svg>