<svg xmlns="http://www.w3.org/2000/svg" version="1.1" xmlns:xlink="http://www.w3.org/1999/xlink" viewBox="0 0 510 510" preserveAspectRatio="xMidYMid">
                    <defs><style>.cls-1{fill:#595959;}</style></defs>
                    <title>medicine-drops</title>
                    <g id="Layer_2" data-name="Layer 2"><g id="medicine-drops">
                    <path class="cls-1" d="M160.5 265v167h191V265c0-14-10-24-24-24h-143c-13 0-24 10-24 24zm24-72h143c40 0 72 32 72 72v167c0 27-21 48-48 48h-191c-27 0-48-21-48-48V265c0-40 32-72 72-72zm95 120h20c14 0 24 11 24 24s-10 23-24 23h-20v20c0 13-11 24-24 24s-24-11-24-24v-20h-19c-13 0-24-10-24-23s11-24 24-24h19v-20c0-14 11-24 24-24s24 10 24 24v20zm72-144h-191c-13 0-24-11-24-25 0-13 11-24 24-24h72V25c0-13 10-24 23-24s24 11 24 24v97h72c14 0 24 9 24 22 0 14-10 25-24 25z"></path>
                    </g></g>
                    </svg>