<svg xmlns="http://www.w3.org/2000/svg" version="1.1" xmlns:xlink="http://www.w3.org/1999/xlink" viewBox="0 0 510 510" preserveAspectRatio="xMidYMid">
                    <defs><style>.cls-1{fill:#595959;}</style></defs>
                    <title>medicine-syrup</title>
                    <g id="Layer_2" data-name="Layer 2"><g id="medicine-syrup">
                    <path class="cls-1" d="M309 321h-26v27c0 16-11 25-27 25s-27-9-27-25v-27h-27c-16 0-25-11-25-27s9-27 25-27h27v-26c0-16 11-27 27-27s27 11 27 27v26h26c16 0 27 11 27 27s-11 27-27 27zm81 79V285c0-22-8-40-24-56l-33-32c-16-14-24-37-24-58v-5H202v5c0 21-6 41-22 58l-32 32c-16 13-25 34-25 56v115c0 14 13 27 27 27h213c15 0 27-13 27-27zM363 55H150v27h213V55zm8 103l32 33c27 27 39 59 39 94v115c0 44-35 80-79 80H150c-44 0-80-36-80-80V285c0-35 16-70 40-94l32-33c6-6 8-11 8-19v-5h-27c-14 0-26-11-26-26V28c0-15 12-27 26-27h267c14 0 26 12 26 27v80c0 15-12 26-26 26h-27v5c0 8 3 13 8 19zm-88 109h26c16 0 27 11 27 27s-11 27-27 27h-26v27c0 16-11 25-27 25s-27-9-27-25v-27h-27c-16 0-25-11-25-27s9-27 25-27h27v-26c0-16 11-27 27-27s27 11 27 27v26z"></path>
                    </g></g>
                    </svg>