<svg xmlns="http://www.w3.org/2000/svg" version="1.1" xmlns:xlink="http://www.w3.org/1999/xlink" viewBox="0 0 510 510" preserveAspectRatio="xMidYMid">
                    <defs><style>.cls-1{fill:#595959;}</style></defs>
                    <title>neutral</title>
                    <g id="Layer_2" data-name="Layer 2"><g id="neutral">
                    <path class="cls-1" d="M423.5 49h-335c-13 0-24 11-24 24v335c0 13 11 24 24 24h335c13 0 24-11 24-24V73c0-13-11-24-24-24zm0 431h-335c-40 0-72-32-72-72V73c0-40 32-72 72-72h335c40 0 72 32 72 72v335c0 40-32 72-72 72z"></path>
                    </g></g>
                    </svg>