<svg xmlns="http://www.w3.org/2000/svg" version="1.1" xmlns:xlink="http://www.w3.org/1999/xlink" viewBox="0 0 510 510" preserveAspectRatio="xMidYMid">
                    <defs><style>.cls-1{fill:#595959;}</style></defs>
                    <title>no-time-change</title>
                    <g id="Layer_2" data-name="Layer 2"><g id="no-time-change">
                    <path class="cls-1" d="M258.25 153c-43 0-77-32-77-75s34-77 77-77c42 0 75 34 75 77s-33 75-75 75zm15 179c-5 4-10 5-17 5s-11-2-17-7l-62-62c-10-10-10-26 0-35 10-10 25-10 35 0l20 18v-52c0-15 12-26 26-26s24 11 24 26v52l20-18c10-10 25-10 35 0 10 9 10 25 0 35l-62 62s0 2-2 2zm-15 25c42 0 75 33 75 75 0 43-33 77-75 77-43 0-77-34-77-77 0-42 34-75 77-75zm0 50c-14 0-26 11-26 25 0 15 12 26 26 26s24-11 24-26c0-14-10-25-24-25z"></path>
                    </g></g>
                    </svg>