<svg xmlns="http://www.w3.org/2000/svg" version="1.1" xmlns:xlink="http://www.w3.org/1999/xlink" viewBox="0 0 510 510" preserveAspectRatio="xMidYMid">
                    <defs><style>.cls-1{fill:#595959;}</style></defs>
                    <title>not-equal</title>
                    <g id="Layer_2" data-name="Layer 2"><g id="not-equal">
                    <path class="cls-1" d="M243.536 280.929h242.576c14.382 0 25.888 11.505 25.888 25.887s-11.506 24.93-25.888 24.93H192.72l-82.457 82.456c-4.794 4.794-11.505 7.67-18.217 7.67s-13.423-2.876-18.217-7.67c-9.588-9.588-9.588-26.846 0-36.434l46.022-46.023H25.888C11.506 331.745 0 321.2 0 306.816s11.506-25.887 25.888-25.887h145.737l96.84-96.84H25.887C11.506 184.09 0 172.585 0 158.203s11.506-25.887 25.888-25.887H319.28l80.54-79.58c9.587-9.589 26.846-9.589 36.434 0s9.588 26.846 0 36.434l-44.105 43.146h93.962c14.382 0 25.888 11.505 25.888 25.887s-11.506 25.888-25.888 25.888H340.375z"></path>
                    </g></g>
                    </svg>