<svg xmlns="http://www.w3.org/2000/svg" version="1.1" xmlns:xlink="http://www.w3.org/1999/xlink" viewBox="0 0 510 510" preserveAspectRatio="xMidYMid">
                    <defs><style>.cls-1{fill:#595959;}</style></defs>
                    <title>outdoor</title>
                    <g id="Layer_2" data-name="Layer 2"><g id="outdoor">
                    <path class="cls-1" d="M67.5 384h377c28 0 51 22 51 50v22c0 13-11 24-24 24h-431c-13 0-24-11-24-24v-22c0-28 23-50 51-50zm21-240c-40 0-72-31-72-71s32-72 72-72 71 32 71 72-31 71-71 71zm27 157l24-42c10-16 32-16 42 0l16 27 75-130c9-16 32-16 41 0l83 145c9 16-3 34-21 34h-239c-18 0-30-18-21-34z"></path>
                    </g></g>
                    </svg>