<svg xmlns="http://www.w3.org/2000/svg" version="1.1" xmlns:xlink="http://www.w3.org/1999/xlink" viewBox="0 0 510 510" preserveAspectRatio="xMidYMid">
                    <defs><style>.cls-1{fill:#595959;}</style></defs>
                    <title>overlap</title>
                    <g id="Layer_2" data-name="Layer 2"><g id="overlap">
                    <path class="cls-1" d="M403.5 234l24 1c41 0 74 32 74 73v98c0 41-33 74-74 74h-245c-41 0-74-33-74-74v-24h-24c-41 0-74-33-74-74v-98c0-41 33-74 74-74h245c41 0 74 33 74 74v24zm-295 74c0-41 33-74 74-74h172v-24c0-14-11-25-25-25h-245c-14 0-25 11-25 25v98c0 14 11 25 25 25h24v-25zm344 98v-98c0-14-11-24-25-24h-245c-14 0-25 10-25 24v98c0 13 11 25 25 25h245c14 0 25-12 25-25z"></path>
                    </g></g>
                    </svg>