<svg xmlns="http://www.w3.org/2000/svg" version="1.1" xmlns:xlink="http://www.w3.org/1999/xlink" viewBox="0 0 510 510" preserveAspectRatio="xMidYMid">
                    <defs><style>.cls-1{fill:#595959;}</style></defs>
                    <title>overview</title>
                    <g id="Layer_2" data-name="Layer 2"><g id="overview">
                    <path class="cls-1" d="M66.5 194c33-73 110-121 189-121h44l-37-37c-8-8-8-21 0-29 9-8 22-8 30 0l72 73c4 4 7 8 7 14 0 7-3 9-7 15l-72 72c-4 5-9 6-15 6-5 0-11-1-15-6-8-8-8-22 0-30l37-35h-44c-91 0-167 75-167 166s76 167 167 167c92 0 166-76 166-167 0-27-4-51-16-75-6-9-1-23 8-28 11-6 23-2 29 9 15 29 22 61 22 94 0 115-93 208-209 208-115 0-208-95-208-208 0-31 7-61 19-88zm69 74c31-39 75-59 120-59 46 0 90 20 121 59 7 8 7 19 0 27-31 39-75 59-121 59-45 0-89-20-120-59-7-8-7-19 0-27zm140 42c20-4 39-13 56-28-17-16-37-25-58-29 10 5 17 16 17 29 0 12-6 21-15 28zm-54-28c0-13 7-24 17-29-21 4-42 13-58 29 16 15 36 24 56 28-9-7-15-16-15-28z"></path>
                    </g></g>
                    </svg>