<svg xmlns="http://www.w3.org/2000/svg" version="1.1" xmlns:xlink="http://www.w3.org/1999/xlink" viewBox="0 0 510 510" preserveAspectRatio="xMidYMid">
                    <defs><style>.cls-1{fill:#595959;}</style></defs>
                    <title>page-down</title>
                    <g id="Layer_2" data-name="Layer 2"><g id="page-down">
                    <path class="cls-1" d="M465 282L278 469c-12 12-30 12-42 0L49 282c-12-12-12-30 0-42s30-12 42 0l165 166 167-166c12-12 30-12 42 0s12 30 0 42zm0-229L278 240c-12 12-30 12-42 0L49 54c-12-12-12-30 0-43C61-1 79-1 91 11l165 166L423 11c12-12 30-12 42 0 12 13 12 30 0 42z"></path>
                    </g></g>
                    </svg>