<svg xmlns="http://www.w3.org/2000/svg" version="1.1" xmlns:xlink="http://www.w3.org/1999/xlink" viewBox="0 0 510 510" preserveAspectRatio="xMidYMid">
                    <defs><style>.cls-1{fill:#595959;}</style></defs>
                    <title>page-up</title>
                    <g id="Layer_2" data-name="Layer 2"><g id="page-up">
                    <path class="cls-1" d="M49 198L236 11c12-12 30-12 42 0l187 187c12 13 12 30 0 42s-30 12-42 0L258 75 91 240c-12 12-30 12-42 0s-12-29 0-42zm0 229l187-187c12-12 30-12 42 0l187 186c12 12 12 31 0 43s-30 12-42 0L258 303 91 469c-12 12-30 12-42 0s-12-30 0-42z"></path>
                    </g></g>
                    </svg>