<svg xmlns="http://www.w3.org/2000/svg" version="1.1" xmlns:xlink="http://www.w3.org/1999/xlink" viewBox="0 0 510 510" preserveAspectRatio="xMidYMid">
                    <defs><style>.cls-1{fill:#595959;}</style></defs>
                    <title>parallel-sequence</title>
                    <g id="Layer_2" data-name="Layer 2"><g id="parallel-sequence">
                    <path class="cls-1" d="M423 337c40 0 72 31 72 71s-32 72-72 72c-30 0-57-20-67-48H256c-13 0-24-11-24-24V265h-76c-9 28-36 48-67 48-40 0-72-32-72-72s32-72 72-72c31 0 58 20 67 48h76V74c0-14 11-24 24-24h100c10-28 37-48 67-48 40 0 72 32 72 72s-32 71-72 71c-30 0-57-19-67-47h-76v286h76c10-28 37-47 67-47z"></path>
                    </g></g>
                    </svg>