<svg xmlns="http://www.w3.org/2000/svg" version="1.1" xmlns:xlink="http://www.w3.org/1999/xlink" viewBox="0 0 510 510" preserveAspectRatio="xMidYMid">
                    <defs><style>.cls-1{fill:#595959;}</style></defs>
                    <title>partially-fixed-cell</title>
                    <g id="Layer_2" data-name="Layer 2"><g id="partially-fixed-cell">
                    <path class="cls-1" d="M123 427l258-186H137c-13 0-24 10-24 24v143c0 8 4 14 10 19zm62-307v72h143v-72c0-40-32-71-72-71s-71 31-71 71zm192 0v72c40 0 70 33 70 73v143c0 40-30 72-70 72H137c-40 0-72-32-72-72V265c0-40 32-73 72-73v-72C137 55 191 1 256 1c66 0 121 54 121 119z"></path>
                    </g></g>
                    </svg>