<svg xmlns="http://www.w3.org/2000/svg" version="1.1" xmlns:xlink="http://www.w3.org/1999/xlink" viewBox="0 0 510 510" preserveAspectRatio="xMidYMid">
                    <defs><style>.cls-1{fill:#595959;}</style></defs>
                    <title>pipette</title>
                    <g id="Layer_2" data-name="Layer 2"><g id="pipette">
                    <path class="cls-1" d="M121.92 336l39 39 181-182-19-19-19-19zm294-327l72 72c10 10 10 23-3 33l-79 79 31 31c10 9 10 24 0 33-9 10-23 10-32 0l-32-31-198 199c0 3-2 5-5 5h-3c-2 3-4 2-6 2h-74c1 4 1 8 1 12 0 20-15 36-35 36s-36-16-36-36 16-35 36-35c4 0 8 0 12 1v-74c0-6 3-13 10-18l196-196-31-31c-10-10-10-24 0-34 9-9 24-9 33 0l31 31 79-79c10-10 23-10 33 0z"></path>
                    </g></g>
                    </svg>