<svg xmlns="http://www.w3.org/2000/svg" version="1.1" xmlns:xlink="http://www.w3.org/1999/xlink" viewBox="0 0 510 510" preserveAspectRatio="xMidYMid">
                    <defs><style>.cls-1{fill:#595959;}</style></defs>
                    <title>plain-grid-layout</title>
                    <g id="Layer_2" data-name="Layer 2"><g id="plain-grid-layout">
                    <path class="cls-1" d="M423.5 49h-335c-13 0-24 12-24 27v329c0 15 11 27 24 27h335c13 0 24-12 24-27V76c0-15-11-27-24-27zm0 431h-335c-40 0-72-33-72-75V76c0-41 32-75 72-75h335c40 0 72 34 72 75v329c0 42-32 75-72 75z"></path>
                    </g></g>
                    </svg>