<svg xmlns="http://www.w3.org/2000/svg" version="1.1" xmlns:xlink="http://www.w3.org/1999/xlink" viewBox="0 0 510 510" preserveAspectRatio="xMidYMid">
                    <defs><style>.cls-1{fill:#595959;}</style></defs>
                    <title>priority-2</title>
                    <g id="Layer_2" data-name="Layer 2"><g id="priority-2">
                    <path class="cls-1" d="M335 1h54c16 0 26 11 26 27v138l-26 132c-3 13-14 21-27 21s-24-8-27-21l-25-132V28c0-16 9-27 25-27zm27 372c29 0 53 24 53 53 0 30-24 53-53 53-30 0-52-23-52-53 0-29 22-53 52-53zM124 2h53c16 0 26 11 26 27v138l-26 132c-2 14-13 22-26 22-14 0-25-8-27-22L97 167V29c0-16 11-27 27-27zm27 372c29 0 52 23 52 52 0 30-23 54-52 54-30 0-54-24-54-54 0-29 24-52 54-52z"></path>
                    </g></g>
                    </svg>