<svg xmlns="http://www.w3.org/2000/svg" version="1.1" xmlns:xlink="http://www.w3.org/1999/xlink" viewBox="0 0 510 510" preserveAspectRatio="xMidYMid">
                    <defs><style>.cls-1{fill:#595959;}</style></defs>
                    <title>project-definition-2</title>
                    <g id="Layer_2" data-name="Layer 2"><g id="project-definition-2">
                    <path class="cls-1" d="M446 25v95c0 13-9 24-23 24H90c-13 0-24-11-24-24V25C66 12 77 1 90 1h333c14 0 23 11 23 24zM75 405l138-234c12-17 27-27 46-27 18 0 33 8 44 27l135 234c1 4 5 9 7 13 1 4 0 10 1 14v4c0 15-4 25-16 32s-24 12-38 12H121c-5 0-15-1-20-3-7-1-12-5-18-9-5-4-9-8-12-13-2-6-5-12-5-19v-4c0-4 1-10 3-14 1-4 5-8 6-13z"></path>
                    </g></g>
                    </svg>