<svg xmlns="http://www.w3.org/2000/svg" version="1.1" xmlns:xlink="http://www.w3.org/1999/xlink" viewBox="0 0 510 510" preserveAspectRatio="xMidYMid">
                    <defs><style>.cls-1{fill:#595959;}</style></defs>
                    <title>pump</title>
                    <g id="Layer_2" data-name="Layer 2"><g id="pump">
                    <path class="cls-1" d="M453.5 216v-49c0-13-11-25-24-25h-104c-6 0-13-3-17-7-29-28-65-43-103-43-82 0-149 67-149 150 0 82 67 149 149 149 83 0 150-67 150-149 0-15-3-30-7-43s4-27 17-31c14-4 27 3 31 16 5 19 8 39 8 58h25c13 0 24-12 24-26zm-118-124h94c41 0 75 34 75 75v49c0 42-34 75-75 75h-32c-22 85-100 149-192 149-109 0-198-89-198-198 0-110 89-199 198-199 47 0 92 18 130 49z"></path>
                    </g></g>
                    </svg>