<svg xmlns="http://www.w3.org/2000/svg" version="1.1" xmlns:xlink="http://www.w3.org/1999/xlink" viewBox="0 0 510 510" preserveAspectRatio="xMidYMid">
                    <defs><style>.cls-1{fill:#595959;}</style></defs>
                    <title>radius</title>
                    <g id="Layer_2" data-name="Layer 2"><g id="radius">
                    <path class="cls-1" d="M425.625 72c93 93 93 245 0 338s-245 93-338 0-93-245 0-338 245-93 338 0zm-34 304c69-69 74-179 14-254l-98 97c8 21 4 47-13 64-23 23-62 23-85 0s-23-61 0-84c17-17 43-21 64-13l97-98c-75-56-181-50-249 18-74 74-74 196 0 270s196 74 270 0z"></path>
                    </g></g>
                    </svg>