<svg xmlns="http://www.w3.org/2000/svg" version="1.1" xmlns:xlink="http://www.w3.org/1999/xlink" viewBox="0 0 510 510" preserveAspectRatio="xMidYMid">
                    <defs><style>.cls-1{fill:#595959;}</style></defs>
                    <title>raw-material</title>
                    <g id="Layer_2" data-name="Layer 2"><g id="raw-material">
                    <path class="cls-1" d="M446.5 78v324c-4 51-98 78-191 78-95 0-190-28-190-80V81c0-53 95-81 190-81 93 0 187 27 191 78zm-343 52v61c0 12 52 42 152 42 101 0 154-30 154-42v-61c-36 20-96 31-154 31-57 0-116-11-152-31zm0 111v54c0 13 52 43 152 43 101 0 154-31 154-43v-54c-36 21-96 30-154 30-57 0-116-9-152-30zm0 104v55c0 12 52 42 152 42 101 0 154-30 154-42v-55c-36 20-96 30-154 30-57 0-116-10-152-30zm0-264c0 12 52 43 152 43 101 0 154-31 154-43 0-8-22-24-65-34 2 6 2 11 2 16 0 20-16 36-36 36s-37-16-37-36c0-9 4-17 9-24-8 0-17-1-27-1-100 0-152 31-152 43z"></path>
                    </g></g>
                    </svg>