<svg xmlns="http://www.w3.org/2000/svg" version="1.1" xmlns:xlink="http://www.w3.org/1999/xlink" viewBox="0 0 510 510" preserveAspectRatio="xMidYMid">
                    <defs><style>.cls-1{fill:#595959;}</style></defs>
                    <title>relationship</title>
                    <g id="Layer_2" data-name="Layer 2"><g id="relationship">
                    <path class="cls-1" d="M207.5 96c-26 0-48-20-48-47s22-48 48-48c27 0 49 21 49 48s-22 47-49 47zm237 8c-26 0-48-22-48-48 0-27 22-47 48-47 27 0 47 20 47 47 0 26-20 48-47 48zm-91 89c-26 0-48-21-48-48s22-47 48-47c27 0 49 20 49 47s-22 48-49 48zm-285 287c-27 0-48-21-48-48s21-47 48-47 47 20 47 47-20 48-47 48zm90-91c-27 0-47-20-47-47s20-48 47-48 48 21 48 48-21 47-48 47zm147-48c-27 0-47-22-47-48 0-27 20-47 47-47s48 20 48 47c0 26-21 48-48 48z"></path>
                    </g></g>
                    </svg>