<svg xmlns="http://www.w3.org/2000/svg" version="1.1" xmlns:xlink="http://www.w3.org/1999/xlink" viewBox="0 0 510 510" preserveAspectRatio="xMidYMid">
                    <defs><style>.cls-1{fill:#595959;}</style></defs>
                    <title>rescheduling</title>
                    <g id="Layer_2" data-name="Layer 2"><g id="rescheduling">
                    <path class="cls-1" d="M456 219l-63 64c-5 5-12 8-19 8s-13-3-18-8c-10-10-10-27 0-37l19-19H137l19 19c10 10 10 27 0 37-5 5-11 8-18 8s-14-3-19-8l-63-64c-5-5-8-11-8-18 0-6 3-13 8-18l63-64c10-10 27-10 37 0s10 27 0 37l-19 19h238l-19-19c-10-10-10-27 0-37s27-10 37 0l63 64c5 4 8 12 8 18s-3 14-8 18zM60 363c32 0 58 26 58 58s-26 59-58 59-59-27-59-59 27-58 59-58zm131 0c32 0 58 26 58 58s-26 59-58 59-59-27-59-59 27-58 59-58zm130 0c32 0 59 26 59 58s-27 59-59 59-58-27-58-59 26-58 58-58zm131 0c32 0 59 26 59 58s-27 59-59 59-58-27-58-59 26-58 58-58zM60 441c11 0 19-9 19-20s-8-19-19-19-20 8-20 19 9 20 20 20zm392 0c11 0 20-9 20-20s-9-19-20-19-19 8-19 19 8 20 19 20z"></path>
                    </g></g>
                    </svg>