<svg xmlns="http://www.w3.org/2000/svg" version="1.1" xmlns:xlink="http://www.w3.org/1999/xlink" viewBox="0 0 510 510" preserveAspectRatio="xMidYMid">
                    <defs><style>.cls-1{fill:#595959;}</style></defs>
                    <title>review-supplies</title>
                    <g id="Layer_2" data-name="Layer 2"><g id="review-supplies">
                    <path class="cls-1" d="M456.56 160l46 45c11 10 10 27 0 38-5 5-12 8-19 8s-14-3-19-8l-45-45c-16 9-35 15-55 15-59 0-107-48-107-107s48-107 107-107 107 48 107 107c0 20-6 38-15 54zM28.56 0h191c16 0 27 11 27 27s-11 27-27 27h-191c-16 0-27-11-27-27s11-27 27-27zm390 106c0-30-24-53-54-53s-53 23-53 53c0 29 23 54 53 54s54-25 54-54zm-217 55h-173c-16 0-27-11-27-27s11-27 27-27h173c16 0 26 11 26 27s-10 27-26 27zm-173 53h236c16 0 27 11 27 27s-11 27-27 27h-236c-16 0-27-11-27-27s11-27 27-27zm0 107h428c16 0 27 11 27 27s-11 27-27 27h-428c-16 0-27-11-27-27s11-27 27-27zm428 159h-428c-16 0-27-11-27-27s11-26 27-26h428c16 0 27 10 27 26s-11 27-27 27z"></path>
                    </g></g>
                    </svg>