<svg xmlns="http://www.w3.org/2000/svg" version="1.1" xmlns:xlink="http://www.w3.org/1999/xlink" viewBox="0 0 510 510" preserveAspectRatio="xMidYMid">
                    <defs><style>.cls-1{fill:#595959;}</style></defs>
                    <title>row-unselected</title>
                    <g id="Layer_2" data-name="Layer 2"><g id="row-unselected">
                    <path class="cls-1" d="M254.497 11c131-1 240 107 241 238s-107 239-238 240-239-106-240-237 106-240 237-241zm193 238c-1-105-87-191-192-190s-191 87-190 192 87 191 192 190 191-87 190-192zm-286-66c-13 0-24-11-24-24s10-24 23-24l190-1c13 0 24 11 24 24s-10 24-23 24zm190 47c13 0 24 11 24 24s-11 24-24 24l-190 1c-13 0-24-11-24-24s11-24 24-24zm1 94c13 0 24 11 24 24s-11 24-24 24l-190 1c-13 0-24-10-24-23s11-24 24-24z"></path>
                    </g></g>
                    </svg>