<svg xmlns="http://www.w3.org/2000/svg" version="1.1" xmlns:xlink="http://www.w3.org/1999/xlink" viewBox="0 0 510 510" preserveAspectRatio="xMidYMid">
                    <defs><style>.cls-1{fill:#595959;}</style></defs>
                    <title>row-selected</title>
                    <g id="Layer_2" data-name="Layer 2"><g id="row-selected">
                    <path class="cls-1" d="M160.5 370h190c14 0 24-10 24-24 0-13-10-24-24-24h-190c-13 0-24 11-24 24 0 14 11 24 24 24zm0-96h190c14 0 24-11 24-24s-10-24-24-24h-190c-13 0-24 11-24 24s11 24 24 24zm0-95h190c14 0 24-11 24-24s-10-24-24-24h-190c-13 0-24 11-24 24s11 24 24 24zm335 71c0 132-107 239-240 239-132 0-239-107-239-239s107-239 239-239c133 0 240 107 240 239z"></path>
                    </g></g>
                    </svg>