<svg xmlns="http://www.w3.org/2000/svg" version="1.1" xmlns:xlink="http://www.w3.org/1999/xlink" viewBox="0 0 510 510" preserveAspectRatio="xMidYMid">
                    <defs><style>.cls-1{fill:#595959;}</style></defs>
                    <title>section</title>
                    <g id="Layer_2" data-name="Layer 2"><g id="section">
                    <path class="cls-1" d="M398.618 278c-32 0-56-24-56-56 0-31 24-56 56-56 31 0 56 25 56 56 0 32-25 56-56 56zm-282 0c-32 0-56-24-56-56 0-31 24-56 56-56 31 0 56 25 56 56 0 32-25 56-56 56zm140 25c-32 0-56-25-56-56 0-32 24-56 56-56 31 0 56 24 56 56 0 31-25 56-56 56zm53 37l44 23c12 5 18 19 15 31-2 13-14 22-28 22h-168c-14 0-25-9-28-22-3-12 3-26 15-31l44-23c12-5 25-9 38-9h30c13 0 26 4 38 9zm142-25l44 23c12 5 18 19 15 31-2 13-14 22-28 22h-88c1-21-10-41-30-51l-34-17 15-8c12-5 25-9 38-9h30c13 0 26 4 38 9zm-282 0l14 7-35 18c-20 10-31 30-29 51h-87c-14 0-25-9-28-22-3-12 3-26 14-31l45-23c12-5 25-9 38-9h30c13 0 26 4 38 9z"></path>
                    </g></g>
                    </svg>