<svg xmlns="http://www.w3.org/2000/svg" version="1.1" xmlns:xlink="http://www.w3.org/1999/xlink" viewBox="0 0 510 510" preserveAspectRatio="xMidYMid">
                    <defs><style>.cls-1{fill:#595959;}</style></defs>
                    <title>segment-preview-reference-objects</title>
                    <g id="Layer_2" data-name="Layer 2"><g id="segment-preview-reference-objects">
                    <path class="cls-1" d="M439.684 213.092c39.533 0 72.316 31.82 72.316 71.352s-32.783 72.317-72.316 72.317-71.353-32.784-71.353-72.317 31.82-71.352 71.353-71.352zM101.243 155.24c54.96 0 100.279 45.318 100.279 100.279 0 55.925-45.319 101.243-100.28 101.243C45.319 356.76 0 311.443 0 255.518c0-54.96 45.318-100.279 101.243-100.279zm178.38 96.422c28.927 0 53.032 24.105 53.032 53.032 0 27.962-24.105 52.068-53.032 52.068-27.962 0-52.067-24.106-52.067-52.068 0-28.927 24.105-53.032 52.067-53.032z"></path>
                    </g></g>
                    </svg>