<svg xmlns="http://www.w3.org/2000/svg" version="1.1" xmlns:xlink="http://www.w3.org/1999/xlink" viewBox="0 0 510 510" preserveAspectRatio="xMidYMid">
                    <defs><style>.cls-1{fill:#595959;}</style></defs>
                    <title>sidepanel</title>
                    <g id="Layer_2" data-name="Layer 2"><g id="sidepanel">
                    <path class="cls-1" d="M435.008 461.955H76.992C34.647 461.955 0 427.308 0 384.962V77.955C0 35.609 34.647.962 76.992.962h358.016C477.353.962 512 35.61 512 77.955v307.007c0 42.346-34.647 76.993-76.992 76.993zM76.992 52.932c-14.436 0-25.984 10.587-25.984 25.023v307.007a25.877 25.877 0 0025.984 25.985h256V52.932h-256zm384 25.023c0-14.436-11.548-25.023-25.984-25.023H384v358.015h51.008a25.877 25.877 0 0025.984-25.985V77.955z"></path>
                    </g></g>
                    </svg>