<svg xmlns="http://www.w3.org/2000/svg" version="1.1" xmlns:xlink="http://www.w3.org/1999/xlink" viewBox="0 0 510 510" preserveAspectRatio="xMidYMid">
                    <defs><style>.cls-1{fill:#595959;}</style></defs>
                    <title>side-panel-left-layout</title>
                    <g id="Layer_2" data-name="Layer 2"><g id="side-panel-left-layout">
                    <path class="cls-1" d="M16.5 405V75c0-41 32-74 72-74h335c40 0 72 33 72 74v330c0 41-32 75-72 75h-335c-40 0-72-34-72-75zm431 0V75c0-15-11-26-24-26h-239v383h239c13 0 24-12 24-27zm-383 0c0 15 11 27 24 27h48V49h-48c-13 0-24 11-24 26v330z"></path>
                    </g></g>
                    </svg>