<svg xmlns="http://www.w3.org/2000/svg" version="1.1" xmlns:xlink="http://www.w3.org/1999/xlink" viewBox="0 0 510 510" preserveAspectRatio="xMidYMid">
                    <defs><style>.cls-1{fill:#595959;}</style></defs>
                    <title>spill</title>
                    <g id="Layer_2" data-name="Layer 2"><g id="spill">
                    <path class="cls-1" d="M495.5 84c0 33-27 60-60 60h-228c-2 13-12 24-24 24-13 0-24-13-24-28V28c0-15 11-28 24-28 12 0 21 11 24 24h228c33 0 60 27 60 60zm-60 12c7 0 12-5 12-12s-5-12-12-12h-228v24h228zm-327 181l47-81c2-4 6-4 8 0l48 81c2 3 2 7 2 11-2 28-25 49-53 49s-52-21-54-49c0-3 1-8 2-11zm340 203h-385c-27 0-48-21-48-48v-48c0-27 21-48 48-48h16c11 0 20 7 23 18 8 24 30 42 57 42s49-18 57-42c3-11 13-18 24-18h208c27 0 48 21 48 48v48c0 27-21 48-48 48z"></path>
                    </g></g>
                    </svg>