<svg xmlns="http://www.w3.org/2000/svg" version="1.1" xmlns:xlink="http://www.w3.org/1999/xlink" viewBox="0 0 510 510" preserveAspectRatio="xMidYMid">
                    <defs><style>.cls-1{fill:#595959;}</style></defs>
                    <title>stock-warehouse</title>
                    <g id="Layer_2" data-name="Layer 2"><g id="stock-warehouse">
                    <path class="cls-1" d="M447 457V197c-46 1-154 0-380-2v262c0 13-11 23-25 23-13 0-23-10-23-23V172c0-4 1-6 1-7 1-3 3-5 5-8 1-2 3-5 5-6L216 27c25-16 57-16 80 0l186 125c4 4 8 6 9 9 1 4 2 7 2 11v285c0 13-9 23-23 23s-23-10-23-23zM209 100c-14 0-24 10-24 24 0 13 10 23 24 23h95c13 0 23-10 23-23 0-14-10-24-23-24h-95zm-59 190h-48c-7 0-12-6-12-12v-47c0-6 5-12 12-12h48c6 0 12 6 12 12v47c0 6-6 12-12 12zm35 36c0-6 5-12 11-12h48c7 0 13 6 13 12v47c0 6-6 12-13 12h-48c-6 0-11-6-11-12v-47zm-95 47v-47c0-6 5-12 12-12h48c6 0 12 6 12 12v47c0 6-6 12-12 12h-48c-7 0-12-6-12-12zm106 36h48c7 0 13 6 13 12v47c0 6-6 12-13 12h-48c-6 0-11-6-11-12v-47c0-6 5-12 11-12zm-94 0h48c6 0 12 6 12 12v47c0 6-6 12-12 12h-48c-7 0-12-6-12-12v-47c0-6 5-12 12-12zm189 0h48c7 0 13 6 13 12v47c0 6-6 12-13 12h-48c-6 0-11-6-11-12v-47c0-6 5-12 11-12z"></path>
                    </g></g>
                    </svg>