<svg xmlns="http://www.w3.org/2000/svg" version="1.1" xmlns:xlink="http://www.w3.org/1999/xlink" viewBox="0 0 510 510" preserveAspectRatio="xMidYMid">
                    <defs><style>.cls-1{fill:#595959;}</style></defs>
                    <title>stratification</title>
                    <g id="Layer_2" data-name="Layer 2"><g id="stratification">
                    <path class="cls-1" d="M280.5 216h191c13 0 24 11 24 24 0 14-11 25-24 25h-191v191c0 13-11 24-24 24-14 0-25-11-25-24V265h-191c-13 0-24-11-24-25 0-13 11-24 24-24h191V25c0-13 11-24 25-24 13 0 24 11 24 24v191zm-121-25c-25 0-47-22-47-47s22-47 47-47c26 0 47 22 47 47s-21 47-47 47zm283-88c-26 0-49-23-49-49 0-25 23-46 49-46 25 0 46 21 46 46 0 26-21 49-46 49zm-90 88c-25 0-47-22-47-47s22-48 47-48 47 23 47 48-22 47-47 47zm-282 282c-26 0-47-21-47-47 0-25 21-48 47-48 25 0 48 23 48 48 0 26-23 47-48 47zm330-89c-25 0-47-22-47-47 0-26 22-47 47-47 26 0 47 21 47 47 0 25-21 47-47 47z"></path>
                    </g></g>
                    </svg>