<svg xmlns="http://www.w3.org/2000/svg" version="1.1" xmlns:xlink="http://www.w3.org/1999/xlink" viewBox="0 0 510 510" preserveAspectRatio="xMidYMid">
                    <defs><style>.cls-1{fill:#595959;}</style></defs>
                    <title>substraction-a-b</title>
                    <g id="Layer_2" data-name="Layer 2"><g id="substraction-a-b">
                    <path class="cls-1" d="M364 123c82 0 147 65 147 147s-65 148-147 148c-42 0-80-18-107-46-27 28-66 47-108 47C67 419 1 352 1 270s66-148 148-148c42 0 81 17 108 46 27-28 65-45 107-45zM227 328c-7-18-11-38-11-58s4-39 11-57c-18-24-46-40-78-40-54 0-97 43-97 97s43 98 97 98c32 0 60-16 78-40z"></path>
                    </g></g>
                    </svg>