<svg xmlns="http://www.w3.org/2000/svg" version="1.1" xmlns:xlink="http://www.w3.org/1999/xlink" viewBox="0 0 510 510" preserveAspectRatio="xMidYMid">
                    <defs><style>.cls-1{fill:#595959;}</style></defs>
                    <title>substraction-b-a</title>
                    <g id="Layer_2" data-name="Layer 2"><g id="substraction-b-a">
                    <path class="cls-1" d="M363 121c82 0 149 67 149 149s-67 149-149 149c-42 0-81-17-108-46-27 28-65 46-107 46C66 419 0 352 0 270s66-148 148-148c42 0 80 18 107 46 27-29 66-47 108-47zm98 149c0-54-44-97-98-97-32 0-60 16-78 40 8 18 12 36 12 57 0 20-4 40-12 58 18 24 46 40 78 40 54 0 98-44 98-98z"></path>
                    </g></g>
                    </svg>