<svg xmlns="http://www.w3.org/2000/svg" version="1.1" xmlns:xlink="http://www.w3.org/1999/xlink" viewBox="0 0 510 510" preserveAspectRatio="xMidYMid">
                    <defs><style>.cls-1{fill:#595959;}</style></defs>
                    <title>sum</title>
                    <g id="Layer_2" data-name="Layer 2"><g id="sum">
                    <path class="cls-1" d="M147.5 429h287c13 0 26 12 26 26 0 13-13 25-26 25h-355c-11 0-20-7-24-16s-1-21 7-28l227-195-227-195c-8-7-11-19-7-28s13-16 24-16h355c13 0 26 12 26 25 0 14-13 26-26 26h-287l198 169c5 6 8 11 8 19s-3 13-8 19z"></path>
                    </g></g>
                    </svg>