<svg xmlns="http://www.w3.org/2000/svg" version="1.1" xmlns:xlink="http://www.w3.org/1999/xlink" viewBox="0 0 510 510" preserveAspectRatio="xMidYMid">
                    <defs><style>.cls-1{fill:#595959;}</style></defs>
                    <title>table-chart-customization</title>
                    <g id="Layer_2" data-name="Layer 2"><g id="table-chart-customization">
                    <path class="cls-1" d="M471 479H89c-40 0-72-32-72-72V25C17 11 28 0 41 0s24 11 24 25v382c0 13 11 24 24 24h382c14 0 25 11 25 24s-11 24-25 24zM264 127c11 18 14 41 8 61l133 132c5 5 5 13 0 19l-40 40c-6 5-14 5-19 0L212 246c-27 7-56-1-76-21-23-23-29-56-19-84 2-4 8-6 11-3l33 34c3 2 8 4 11 1l25-27c3-2 3-8 0-11l-33-32c-4-4-1-10 4-12 35-12 75 0 96 36z"></path>
                    </g></g>
                    </svg>