<svg xmlns="http://www.w3.org/2000/svg" version="1.1" xmlns:xlink="http://www.w3.org/1999/xlink" viewBox="0 0 510 510" preserveAspectRatio="xMidYMid">
                    <defs><style>.cls-1{fill:#595959;}</style></defs>
                    <title>top-side-panel-layout</title>
                    <g id="Layer_2" data-name="Layer 2"><g id="top-side-panel-layout">
                    <path class="cls-1" d="M88 0h336c40 0 72 32 72 72v336c0 40-32 72-72 72H88c-40 0-72-32-72-72V72C16 32 48 0 88 0zM64 72v48h384V72c0-13-11-24-24-24H88c-13 0-24 11-24 24zm360 360c13 0 24-11 24-24V168H184v264h240zm-288 0V168H64v240c0 13 11 24 24 24h48z"></path>
                    </g></g>
                    </svg>