<svg xmlns="http://www.w3.org/2000/svg" version="1.1" xmlns:xlink="http://www.w3.org/1999/xlink" viewBox="0 0 510 510" preserveAspectRatio="xMidYMid">
                    <defs><style>.cls-1{fill:#595959;}</style></defs>
                    <title>top-panel-layout</title>
                    <g id="Layer_2" data-name="Layer 2"><g id="top-panel-layout">
                    <path class="cls-1" d="M91.5 1h330c41 0 74 32 74 72v335c0 40-33 72-74 72h-330c-41 0-75-32-75-72V73c0-40 34-72 75-72zm0 48c-15 0-27 11-27 24v48h383V73c0-13-11-24-26-24h-330zm330 383c15 0 26-11 26-24V168h-383v240c0 13 12 24 27 24h330z"></path>
                    </g></g>
                    </svg>