<svg xmlns="http://www.w3.org/2000/svg" version="1.1" xmlns:xlink="http://www.w3.org/1999/xlink" viewBox="0 0 510 510" preserveAspectRatio="xMidYMid">
                    <defs><style>.cls-1{fill:#595959;}</style></defs>
                    <title>transformer</title>
                    <g id="Layer_2" data-name="Layer 2"><g id="transformer">
                    <path class="cls-1" d="M89 312c0-25 5-49 16-72-11-23-16-47-16-73C89 75 164 0 257 0c92 0 166 75 166 167 0 26-5 50-16 73 11 23 16 47 16 72 0 93-74 168-166 168-93 0-168-75-168-168zm291-114c3-10 3-20 3-31 0-69-57-127-126-127-70 0-128 58-128 127 0 11 2 21 4 31 31-35 77-53 124-53s92 18 123 53zm-123-14c-42 0-81 21-105 56 24 35 63 55 105 55 41 0 80-20 104-55-24-35-63-56-104-56zm0 256c69 0 126-58 126-128 0-10 0-21-3-32-31 35-76 55-123 55s-93-20-124-55c-2 11-4 22-4 32 0 70 58 128 128 128z"></path>
                    </g></g>
                    </svg>