<svg xmlns="http://www.w3.org/2000/svg" version="1.1" xmlns:xlink="http://www.w3.org/1999/xlink" viewBox="0 0 510 510" preserveAspectRatio="xMidYMid">
                    <defs><style>.cls-1{fill:#595959;}</style></defs>
                    <title>underline</title>
                    <g id="Layer_2" data-name="Layer 2"><g id="underline">
                    <path class="cls-1" d="M71 428h370c19 0 31 12 31 31 0 18-12 30-31 30H71c-19 0-31-12-31-30 0-19 12-31 31-31zm186-46c-87 0-156-68-156-155V43c0-19 13-32 31-32 19 0 31 13 31 32v184c0 52 41 93 94 93 52 0 92-41 92-93V43c0-19 12-32 31-32 18 0 30 13 30 32v184c0 87-67 155-153 155z"></path>
                    </g></g>
                    </svg>