<svg xmlns="http://www.w3.org/2000/svg" version="1.1" xmlns:xlink="http://www.w3.org/1999/xlink" viewBox="0 0 510 510" preserveAspectRatio="xMidYMid">
                    <defs><style>.cls-1{fill:#595959;}</style></defs>
                    <title>unfirmed</title>
                    <g id="Layer_2" data-name="Layer 2"><g id="unfirmed">
                    <path class="cls-1" d="M256 2c131 0 239 108 239 239S387 480 256 480 17 372 17 241 125 2 256 2zm0 430c105 0 191-86 191-191S361 50 256 50 65 136 65 241s86 191 191 191zm-24-215h72c27 0 48 21 48 48v72c0 27-21 47-48 47h-96c-27 0-48-20-48-47v-72c0-17 9-33 24-41v-55c0-40 32-71 72-71s72 31 72 71c0 13-11 24-24 24s-24-11-24-24-11-24-24-24-24 11-24 24v48zm-24 120h96v-72h-96v72z"></path>
                    </g></g>
                    </svg>