<svg id="slservice" xmlns="http://www.w3.org/2000/svg" viewBox="0 0 56 56"><defs><style>.cls-1{fill:#053b70;}.cls-2{fill:#0a6ed1;}</style></defs><title>slservice</title><path class="cls-1" d="M23.714,14.829a1.925,1.925,0,0,0-2.2-1.772l-1.988.215a1.926,1.926,0,0,0-1.773,2.205l.216,1.988a1.968,1.968,0,0,0,.711,1.337,1.887,1.887,0,0,0,1.493.435l1.988-.215a1.892,1.892,0,0,0,1.365-.746,1.976,1.976,0,0,0,.408-1.458Z"/><path class="cls-1" d="M26.637,15.085l4.484-.5a1.38,1.38,0,0,0,1.044-.539,1.508,1.508,0,0,0,.353-1.057,1.327,1.327,0,0,0-1.6-1.4l-4.484.5a1.507,1.507,0,0,0-1,.489,1.385,1.385,0,0,0-.4,1.107,1.612,1.612,0,0,0,1.6,1.4Z"/><path class="cls-1" d="M30.922,15.907l-4.484.5a1.5,1.5,0,0,0-1,.49,1.382,1.382,0,0,0-.4,1.106,1.614,1.614,0,0,0,1.6,1.4l4.484-.5a1.383,1.383,0,0,0,1.044-.539,1.508,1.508,0,0,0,.353-1.057A1.326,1.326,0,0,0,30.922,15.907Z"/><path class="cls-1" d="M30.922,20.469l-4.484.5a1.507,1.507,0,0,0-1,.489,1.385,1.385,0,0,0-.4,1.107,1.612,1.612,0,0,0,1.6,1.4l4.484-.5a1.38,1.38,0,0,0,1.044-.539,1.508,1.508,0,0,0,.353-1.057A1.327,1.327,0,0,0,30.922,20.469Z"/><path class="cls-2" d="M6.323,23.258,8.452,43.581l3.677-16.646h27V26.4a4.581,4.581,0,0,1,.145-1.113,3.172,3.172,0,0,1,.484-1.064,1.066,1.066,0,0,1,.919-.484h9.581a6.092,6.092,0,0,1,.968.193A1.684,1.684,0,0,1,52,25.29L46.581,49H7L4,19.581H5.742L4.677,13.387l8.9-1.548L13.29,9.032,35.355,7l.193,2.323,11.517,1.354-.678,10.936H44.548l.387-9.194-9.1-.967L37.1,25.1H35.065L33.71,9.806,15.516,11.548,16.774,25.1H14.839L13.774,14.065,7.1,15.226,9.71,29.645l-.871,3.678Zm41.032,7.161H14.839L11.161,45.613H43.774Z"/></svg>