<svg xmlns="http://www.w3.org/2000/svg" version="1.1" xmlns:xlink="http://www.w3.org/1999/xlink" viewBox="0 0 510 510" preserveAspectRatio="xMidYMid">
                    <defs><style>.cls-1{fill:#595959;}</style></defs>
                    <title>accidental-leave</title>
                    <g id="Layer_2" data-name="Layer 2"><g id="accidental-leave">
                    <path class="cls-1" d="M391 480H121q-37 0-63.5-26T31 390V121q0-38 26.5-64T121 31h270q37 0 63 26t26 64v269q0 38-26 64t-63 26zM121 82q-16 0-27 11.5T83 121v269q0 16 11 27.5t27 11.5h270q16 0 27-11.5t11-27.5V121q0-16-11-27.5T391 82H121zm182 318h-95q-11 0-18-7.5t-7-18.5v-46h-46q-11 0-18-7t-7-18v-95q0-11 7-18.5t18-7.5h46v-45q0-11 7-18.5t18-7.5h95q11 0 18.5 7.5T329 137v45h45q11 0 18.5 7.5T400 208v95q0 11-7.5 18t-18.5 7h-45v46q0 11-7.5 18.5T303 400zm-69-52h44v-45q0-11 7-18.5t18-7.5h46v-43h-46q-11 0-18-7.5t-7-18.5v-46h-44v46q0 11-7.5 18.5T208 234h-45v43h45q11 0 18.5 7.5T234 303v45z"></path>
                    </g></g>
                    </svg>