<svg xmlns="http://www.w3.org/2000/svg" version="1.1" xmlns:xlink="http://www.w3.org/1999/xlink" viewBox="0 0 510 510" preserveAspectRatio="xMidYMid">
                    <defs><style>.cls-1{fill:#595959;}</style></defs>
                    <title>basket</title>
                    <g id="Layer_2" data-name="Layer 2"><g id="basket">
                    <path class="cls-1" d="M499.22 216q17 23 9 50l-46 172q-5 19-20 30.5t-35 11.5h-301q-20 0-35-11.5t-20-30.5l-47-172q-6-28 10-50 17-22 46-22h49l128-150q8-8 19.5-8t19.5 8l128 150h49q29 0 46 22zm-324-22h162l-81-95zm284 59q1-4-1-6t-5-2h-393q-4 0-6 2-1 2-1 6l47 171q0 5 6 5h301q4 0 6-5zm-202 35q20 0 34 14t14 34-14 34-34 14-34-14-14-34 14-34 34-14z"></path>
                    </g></g>
                    </svg>