<svg xmlns="http://www.w3.org/2000/svg" version="1.1" xmlns:xlink="http://www.w3.org/1999/xlink" viewBox="0 0 510 510" preserveAspectRatio="xMidYMid">
                    <defs><style>.cls-1{fill:#595959;}</style></defs>
                    <title>begin</title>
                    <g id="Layer_2" data-name="Layer 2"><g id="begin">
                    <path class="cls-1" d="M282 480q-11 0-19-8t-7.5-18 8.5-18l186-180L264 76q-8-8-8.5-18t7.5-18 18-8.5 18 7.5l205 199q8 6 8 18t-8 18L299 473q-7 7-17 7zm-256 0q-5 0-11-2-15-8-15-24V58q0-16 15-24 14-6 27 4l237 198q9 7 9 20 0 12-9 20L42 474q-7 6-16 6zm25-368v288l172-144z"></path>
                    </g></g>
                    </svg>