<svg xmlns="http://www.w3.org/2000/svg" version="1.1" xmlns:xlink="http://www.w3.org/1999/xlink" viewBox="0 0 510 510" preserveAspectRatio="xMidYMid">
                    <defs><style>.cls-1{fill:#595959;}</style></defs>
                    <title>border</title>
                    <g id="Layer_2" data-name="Layer 2"><g id="border">
                    <path class="cls-1" d="M391 480H121q-37 0-63.5-26T31 390V121q0-38 26.5-64T121 31h270q37 0 63 26t26 64v269q0 38-26 64t-63 26zM121 82q-16 0-27 11.5T83 121v269q0 16 11 27.5t27 11.5h270q16 0 27-11.5t11-27.5V121q0-16-11-27.5T391 82H121z"></path>
                    </g></g>
                    </svg>