<svg xmlns="http://www.w3.org/2000/svg" version="1.1" xmlns:xlink="http://www.w3.org/1999/xlink" viewBox="0 0 510 510" preserveAspectRatio="xMidYMid">
                    <defs><style>.cls-1{fill:#595959;}</style></defs>
                    <title>chevron-phase</title>
                    <g id="Layer_2" data-name="Layer 2"><g id="chevron-phase">
                    <path class="cls-1" d="M356 449H26q-15 0-23-15-3-6-3-13t4-15l93-149L4 108Q0 98 0 93q0-7 3-14 8-14 23-14h330q42 0 65 37l87 140q4 5 4 15t-4 15l-87 140q-23 37-65 37zM74 394h282q15 0 22-13l77-124-77-124q-7-13-22-13H74l76 122q4 5 4 15t-4 15z"></path>
                    </g></g>
                    </svg>