<svg xmlns="http://www.w3.org/2000/svg" version="1.1" xmlns:xlink="http://www.w3.org/1999/xlink" viewBox="0 0 510 510" preserveAspectRatio="xMidYMid">
                    <defs><style>.cls-1{fill:#595959;}</style></defs>
                    <title>decline</title>
                    <g id="Layer_2" data-name="Layer 2"><g id="decline">
                    <path class="cls-1" d="M292 256l117 117q7 7 7 18t-7.5 18-18.5 7-18-7L256 293 140 409q-7 7-18 7t-18.5-7-7.5-18 7-18l117-117-117-116q-7-7-7-18t7.5-18.5T122 96q10 0 18 8l116 116 116-116q8-8 18-8 11 0 18.5 7.5T416 122t-7 18z"></path>
                    </g></g>
                    </svg>