<svg xmlns="http://www.w3.org/2000/svg" version="1.1" xmlns:xlink="http://www.w3.org/1999/xlink" viewBox="0 0 510 510" preserveAspectRatio="xMidYMid">
                    <defs><style>.cls-1{fill:#595959;}</style></defs>
                    <title>doc-attachment</title>
                    <g id="Layer_2" data-name="Layer 2"><g id="doc-attachment">
                    <path class="cls-1" d="M374 461q11 0 18.5 7t7.5 18-7.5 18.5T374 512H42q-11 0-18.5-7.5T16 486V179q0-10 7-17L165 8q8-8 19-8h190q11 0 18.5 7.5T400 26v70q0 11-7.5 18.5T374 122t-18-7.5-7-18.5V51H195l-19 21v53q0 21-15 36t-36 15H80l-13 13v272h307zM272 199q0-11 7.5-18.5T298 173h172q11 0 18.5 7.5T496 199t-7.5 18-18.5 7H298q-11 0-18.5-7t-7.5-18zm198 70q11 0 18.5 7.5T496 295t-7.5 18-18.5 7H298q-11 0-18.5-7t-7.5-18 7.5-18.5T298 269h172zm-64 96q11 0 18.5 7.5T432 391t-7.5 18-18.5 7H298q-11 0-18.5-7t-7.5-18 7.5-18.5T298 365h108z"></path>
                    </g></g>
                    </svg>