<svg xmlns="http://www.w3.org/2000/svg" version="1.1" xmlns:xlink="http://www.w3.org/1999/xlink" viewBox="0 0 510 510" preserveAspectRatio="xMidYMid">
                    <defs><style>.cls-1{fill:#595959;}</style></defs>
                    <title>favorite</title>
                    <g id="Layer_2" data-name="Layer 2"><g id="favorite">
                    <path class="cls-1" d="M0 198q0-9 6-16t16-9l147-21 64-137q7-15 23-15t23 15l64 137 147 21q10 2 16 9t6 16q0 11-7 18L399 328l26 154q0 2 .5 2.5t.5 1.5q0 11-7.5 18.5T400 512q-7 0-12-3l-132-74-132 74q-4 3-12 3-11 0-18.5-7.5T86 486q0-1 .5-1.5t.5-2.5l26-154L7 216q-7-7-7-18z"></path>
                    </g></g>
                    </svg>