<svg xmlns="http://www.w3.org/2000/svg" version="1.1" xmlns:xlink="http://www.w3.org/1999/xlink" viewBox="0 0 510 510" preserveAspectRatio="xMidYMid">
                    <defs><style>.cls-1{fill:#595959;}</style></defs>
                    <title>flight</title>
                    <g id="Layer_2" data-name="Layer 2"><g id="flight">
                    <path class="cls-1" d="M466 259q7 3 10.5 9.5T480 283v9q0 11-8 19.5t-19 8.5q-5 0-8-1l-157-31v103l58 37q13 8 13 24 0 12-8.5 20t-20.5 8q-5 0-8-1l-69-21-69 21q-3 1-8 1-11 0-20-8t-9-20q0-16 13-24l57-37V289L67 319q-2 1-7 1-11 0-19.5-8.5T32 292v-9q0-16 14-24l171-99V68q0-15 10.5-25.5T253 32t25 10.5T288 68v92z"></path>
                    </g></g>
                    </svg>