<svg xmlns="http://www.w3.org/2000/svg" version="1.1" xmlns:xlink="http://www.w3.org/1999/xlink" viewBox="0 0 510 510" preserveAspectRatio="xMidYMid">
                    <defs><style>.cls-1{fill:#595959;}</style></defs>
                    <title>inspect</title>
                    <g id="Layer_2" data-name="Layer 2"><g id="inspect">
                    <path class="cls-1" d="M102-7q0-11 7.5-18t18.5-7h358q11 0 18.5 7T512-7v359q0 11-7.5 18t-18.5 7H128q-11 0-18.5-7t-7.5-18V-7zm51 333h307V19H153v307zm136-212q-13-13-6-28 6-16 24-16h77q10 0 17.5 7t7.5 18v77q0 18-16 24-15 7-28-6l-20-20-97 97q-8 8-18 8t-18-8-8-18 8-18l97-97zM51 429h435q11 0 18.5 7t7.5 18-7.5 18.5T486 480H26q-11 0-18.5-7.5T0 454V-6q0-11 7.5-18.5T26-32t18 7.5T51-6v435z"></path>
                    </g></g>
                    </svg>