<svg xmlns="http://www.w3.org/2000/svg" version="1.1" xmlns:xlink="http://www.w3.org/1999/xlink" viewBox="0 0 510 510" preserveAspectRatio="xMidYMid">
                    <defs><style>.cls-1{fill:#595959;}</style></defs>
                    <title>iphone</title>
                    <g id="Layer_2" data-name="Layer 2"><g id="iphone">
                    <path class="cls-1" d="M373.5 0q33 0 54 22.5t21 55.5v356q0 33-22.5 55.5T370.5 512h-229q-33 0-55.5-22.5T63.5 434V78q0-33 22.5-55.5T141.5 0h232zm26 78q0-11-7.5-18.5T373.5 52h-229q-12 0-19 7.5t-7 18.5v356q0 11 7 18.5t19 7.5h229q11 0 18.5-7.5t7.5-18.5V78z"></path>
                    </g></g>
                    </svg>