<svg xmlns="http://www.w3.org/2000/svg" version="1.1" xmlns:xlink="http://www.w3.org/1999/xlink" viewBox="0 0 510 510" preserveAspectRatio="xMidYMid">
                    <defs><style>.cls-1{fill:#595959;}</style></defs>
                    <title>media-pause</title>
                    <g id="Layer_2" data-name="Layer 2"><g id="media-pause">
                    <path class="cls-1" d="M390 32q11 0 18.5 7t7.5 18v397q0 11-7.5 18.5T390 480h-33q-11 0-18.5-7.5T331 454V57q0-11 7.5-18t18.5-7h33zm-234 0q11 0 18 7t7 18v397q0 11-7 18.5t-18 7.5h-34q-11 0-18.5-7.5T96 454V57q0-11 7.5-18t18.5-7h34z"></path>
                    </g></g>
                    </svg>