<svg xmlns="http://www.w3.org/2000/svg" version="1.1" xmlns:xlink="http://www.w3.org/1999/xlink" viewBox="0 0 510 510" preserveAspectRatio="xMidYMid">
                    <defs><style>.cls-1{fill:#595959;}</style></defs>
                    <title>media-forward</title>
                    <g id="Layer_2" data-name="Layer 2"><g id="media-forward">
                    <path class="cls-1" d="M280 448q-6 0-11-3-15-7-15-23V91q0-16 15-23 13-7 27 3l206 165q10 7 10 20 0 14-10 20L296 442q-7 6-16 6zm24-305v223l139-112zM26 448q-5 0-11-2-15-8-15-24V90q0-16 15-23 13-7 27 3l203 166q9 7 9 20 0 12-9 20L42 442q-7 6-16 6zm25-300v223l137-111z"></path>
                    </g></g>
                    </svg>