<svg xmlns="http://www.w3.org/2000/svg" version="1.1" xmlns:xlink="http://www.w3.org/1999/xlink" viewBox="0 0 510 510" preserveAspectRatio="xMidYMid">
                    <defs><style>.cls-1{fill:#595959;}</style></defs>
                    <title>share</title>
                    <g id="Layer_2" data-name="Layer 2"><g id="share">
                    <path class="cls-1" d="M486 150q11 0 18 7.5t8 17.5q0 12-8 19l-54 55q-7 7-18 7t-18-7l-54-55q-8-7-8-19 1-11 8-18t18-7q10 0 18 8l10 11v-47q0-29-20.5-50T336 51H90q-11 0-18.5-7T64 26t7.5-18.5T90 0h246q25 0 47.5 9.5t39 26 26 39T458 122v47l10-11q8-8 18-8zm-64 311q11 0 18.5 7t7.5 18-7.5 18.5T422 512H176q-25 0-47.5-9.5t-39-26-26-39T54 390v-47l-10 11q-8 8-18 8-11 0-18-7.5T0 337q0-12 8-19l54-55q7-7 18-7t18 7l54 55q8 7 8 19-1 11-8 18t-18 7q-10 0-18-8l-10-11v47q0 29 20.5 50t49.5 21h246z"></path>
                    </g></g>
                    </svg>