<svg xmlns="http://www.w3.org/2000/svg" version="1.1" xmlns:xlink="http://www.w3.org/1999/xlink" viewBox="0 0 510 510" preserveAspectRatio="xMidYMid">
                    <defs><style>.cls-1{fill:#595959;}</style></defs>
                    <title>ui-notifications</title>
                    <g id="Layer_2" data-name="Layer 2"><g id="ui-notifications">
                    <path class="cls-1" d="M436 64q32 0 54 22t22 54v232q0 32-22 54t-54 22H76q-32 0-54-22T0 372V140q0-32 22-54t54-22h360zm25 76q0-25-25-25H76q-25 0-25 25v232q0 25 25 25h360q25 0 25-25V140zM295 289q25 0 25 25t-25 25H153q-25 0-25-25t25-25h142zm64-97q25 0 25 25t-25 25H153q-25 0-25-25t25-25h206z"></path>
                    </g></g>
                    </svg>