<svg xmlns="http://www.w3.org/2000/svg" version="1.1" xmlns:xlink="http://www.w3.org/1999/xlink" viewBox="0 0 510 510" preserveAspectRatio="xMidYMid">
                    <defs><style>.cls-1{fill:#595959;}</style></defs>
                    <title>actor</title>
                    <g id="Layer_2" data-name="Layer 2"><g id="actor">
                    <path class="cls-1" d="M421 49q8 8 8 18.5T421 86l-98 97v303q0 11-7.5 18.5T297 512t-19-7.5-8-18.5V353h-26v133q0 11-8 18.5t-19 7.5-18.5-7.5T191 486V183L93 86q-8-7-7.5-18T93 49q8-8 19-8t19 8l92 91h69l92-91q8-8 18.5-8t18.5 8zm-164 71q-25 0-42-17.5T198 60q0-24 17-42t42-18 42.5 18T317 60q0 25-17.5 42.5T257 120z"></path>
                    </g></g>
                    </svg>