<svg xmlns="http://www.w3.org/2000/svg" version="1.1" xmlns:xlink="http://www.w3.org/1999/xlink" viewBox="0 0 510 510" preserveAspectRatio="xMidYMid">
                    <defs><style>.cls-1{fill:#595959;}</style></defs>
                    <title>ad-hoc-marker</title>
                    <g id="Layer_2" data-name="Layer 2"><g id="ad-hoc-marker">
                    <path class="cls-1" d="M501 169q5 0 8 3t3 6v5q0 40-11 68-5 14-10.5 24T476 294q-8 8-17 14.5t-21 9.5q-20 7-43 7h-16.5l-15.5-2q-8-2-16.5-3.5T330 316q-9-3-18-5.5t-21-7.5q-10-4-21.5-10T244 280q-17-8-33.5-15.5T178 248q-26-13-58-13-26 0-41 18t-18 61q-3 9-11 9H9q-9 0-9-11 0-72 34-109 36-36 86-36h16.5l16.5 2 16 4 16 5q7 2 16.5 5.5T221 192q17 10 45 20 19 11 36 18l34 14q16 5 30.5 9t28.5 4q28 0 41-20 7-10 10-24t5-35q0-3 2-6t7-3h41z"></path>
                    </g></g>
                    </svg>