<svg xmlns="http://www.w3.org/2000/svg" version="1.1" xmlns:xlink="http://www.w3.org/1999/xlink" viewBox="0 0 510 510" preserveAspectRatio="xMidYMid">
                    <defs><style>.cls-1{fill:#595959;}</style></defs>
                    <title>aggregation</title>
                    <g id="Layer_2" data-name="Layer 2"><g id="aggregation">
                    <path class="cls-1" d="M226 303q-10 0-17-8-8-8-8-18t8-18L449 19q8-8 18-8t18 8 8 18-8 18L245 295q-8 8-19 8zm260-94q-11 0-18-7.5t-7-18.5V50H328q-11 0-18-7t-7-18 7-18 18-7h158q11 0 18.5 7t7.5 18v158q0 11-7.5 18.5T486 209zM57 305q-6 0-6 6v141q0 6 6 6h141q6 0 6-6V311q0-6-6-6H57zm141 204H57q-24 0-40.5-16.5T0 452V311q0-24 16.5-40.5T57 254h141q23 0 39.5 16.5T254 311v141q0 24-16.5 40.5T198 509z"></path>
                    </g></g>
                    </svg>