<svg xmlns="http://www.w3.org/2000/svg" version="1.1" xmlns:xlink="http://www.w3.org/1999/xlink" viewBox="0 0 510 510" preserveAspectRatio="xMidYMid">
                    <defs><style>.cls-1{fill:#595959;}</style></defs>
                    <title>aggregator</title>
                    <g id="Layer_2" data-name="Layer 2"><g id="aggregator">
                    <path class="cls-1" d="M102 409H51v51h51v-51zm0-179H51v51h51v-51zm0-179H51v51h51V51zm26 307q11 0 18.5 7.5T154 384v25h51V281h-51v26q0 11-7.5 18t-18.5 7H26q-11 0-18.5-7T0 307V205q0-11 7.5-18.5T26 179h102q11 0 18.5 7.5T154 205v25h51V102h-51v26q0 11-7.5 18t-18.5 7H26q-11 0-18.5-7T0 128V26Q0 15 7.5 7.5T26 0h102q11 0 18.5 7.5T154 26v25h51q21 0 36 15t15 36v128h77v-51q0-21 15-36t36-15h77q21 0 36 15t15 36v153q0 21-15 36.5T461 384h-77q-21 0-36-15.5T333 332v-51h-77v128q0 21-15 36t-36 15h-51v26q0 11-7.5 18t-18.5 7H26q-11 0-18.5-7T0 486V384q0-11 7.5-18.5T26 358h102z"></path>
                    </g></g>
                    </svg>