<svg xmlns="http://www.w3.org/2000/svg" version="1.1" xmlns:xlink="http://www.w3.org/1999/xlink" viewBox="0 0 510 510" preserveAspectRatio="xMidYMid">
                    <defs><style>.cls-1{fill:#595959;}</style></defs>
                    <title>arrow</title>
                    <g id="Layer_2" data-name="Layer 2"><g id="arrow">
                    <path class="cls-1" d="M72 507q-12 0-24-4.5T27 489Q8 470 8 444t19-45L401 25q19-19 45-19t44 19q19 19 19 45t-19 45L117 489q-19 18-45 18zm374-107q-27 0-45.5-18.5T382 337V134H179q-26 0-45-19t-19-45 19-44.5T179 7h267q26 0 44.5 18.5T509 70v267q0 26-18.5 44.5T446 400z"></path>
                    </g></g>
                    </svg>