<svg xmlns="http://www.w3.org/2000/svg" version="1.1" xmlns:xlink="http://www.w3.org/1999/xlink" viewBox="0 0 510 510" preserveAspectRatio="xMidYMid">
                    <defs><style>.cls-1{fill:#595959;}</style></defs>
                    <title>association</title>
                    <g id="Layer_2" data-name="Layer 2"><g id="association">
                    <path class="cls-1" d="M28 502q-11 0-17-7-8-8-8-18t8-18L450 19q8-8 18-8t18 8 8 18-8 18L46 495q-7 7-18 7zm460-294q-11 0-18.5-7.5T462 182V50H330q-11 0-18.5-7T304 25t7.5-18T330 0h158q10 0 17 7t7 18v157q0 11-7 18.5t-17 7.5z"></path>
                    </g></g>
                    </svg>