<svg xmlns="http://www.w3.org/2000/svg" version="1.1" xmlns:xlink="http://www.w3.org/1999/xlink" viewBox="0 0 510 510" preserveAspectRatio="xMidYMid">
                    <defs><style>.cls-1{fill:#595959;}</style></defs>
                    <title>block</title>
                    <g id="Layer_2" data-name="Layer 2"><g id="block">
                    <path class="cls-1" d="M435 378V158l-154 69v220zm-358 0l153 69V227L77 158v220zm37-260l142 64 142-64-142-64zm372-1v277q0 16-15 24l-204 92q-3 1-5.5 1.5t-5.5.5q-4 0-10-2L41 418q-15-8-15-24V117q0-4 2-8v-1q0-1 1-2 1-2 4-5l2-2q1-2 6-4L246 3q10-5 21 0l204 92q4 2 6 4l2 2q3 3 4 5 0 1 .5 1t.5 1v1q2 4 2 8z"></path>
                    </g></g>
                    </svg>