<svg xmlns="http://www.w3.org/2000/svg" version="1.1" xmlns:xlink="http://www.w3.org/1999/xlink" viewBox="0 0 510 510" preserveAspectRatio="xMidYMid">
                    <defs><style>.cls-1{fill:#595959;}</style></defs>
                    <title>boolean</title>
                    <g id="Layer_2" data-name="Layer 2"><g id="boolean">
                    <path class="cls-1" d="M503 467q8 8 8 18.5t-8 18.5q-9 7-18 7t-18-7l-84-84-83 84q-9 7-18 7t-18-7q-7-8-7-18.5t7-18.5l84-83-84-83q-7-8-7-18t7-18q8-8 18-8t18 8l83 84 84-84q7-8 17.5-8t18.5 8 8 18-8 18l-84 83zM324 11q8 7 9 17.5T326 47L141 255q-7 9-19 9-11 0-19-9L10 151q-7-8-6.5-18.5T12 115q8-8 18-7t18 9l74 83L289 13q7-8 17-8.5t18 6.5z"></path>
                    </g></g>
                    </svg>