<svg xmlns="http://www.w3.org/2000/svg" version="1.1" xmlns:xlink="http://www.w3.org/1999/xlink" viewBox="0 0 510 510" preserveAspectRatio="xMidYMid">
                    <defs><style>.cls-1{fill:#595959;}</style></defs>
                    <title>catching-message</title>
                    <g id="Layer_2" data-name="Layer 2"><g id="catching-message">
                    <path class="cls-1" d="M256 51q-42 0-79.5 16T111 111t-44 65.5T51 256t16 79.5 44 65 65.5 43.5 79.5 16 79.5-16 65.5-43.5 44-65 16-79.5-16-79.5-44-65.5-65.5-44T256 51zm0 460q-53 0-99.5-20T75 436.5t-55-81T0 256t20-100 55-81.5T156.5 20 256 0t99.5 20T437 74.5t55 81.5 20 100-20 99.5-55 81-81.5 54.5-99.5 20zm-56-304q-3 0-3 3v80q0 3 3 3h112q3 0 3-3v-80q0-3-3-3H200zm112 111H200q-11 0-20-8t-9-20v-80q0-12 9-20.5t20-8.5h112q12 0 20.5 8.5T341 210v80q0 12-8.5 20t-20.5 8zm-56-58q-8 0-16-5l-55-34q-4-3-5.5-8t1.5-10q3-4 8-5.5t10 1.5l55 34q1 0 1 .5t1 .5h1l56-35q4-3 9.5-1.5t7.5 5.5q7 11-4 18l-55 34q-8 5-15 5zm0-132q-27 0-50.5 10T165 165t-27 40.5-10 50.5 10 50.5 27 40.5 40.5 27 50.5 10 50.5-10 40.5-27 27-40.5 10-50.5-10-50.5-27-40.5-40.5-27-50.5-10zm0 307q-37 0-69.5-14t-57-38.5-38.5-57T77 256t14-69.5 38.5-57 57-38.5T256 77t69.5 14 57 38.5 38.5 57 14 69.5-14 69.5-38.5 57-57 38.5-69.5 14z"></path>
                    </g></g>
                    </svg>