<svg xmlns="http://www.w3.org/2000/svg" version="1.1" xmlns:xlink="http://www.w3.org/1999/xlink" viewBox="0 0 510 510" preserveAspectRatio="xMidYMid">
                    <defs><style>.cls-1{fill:#595959;}</style></defs>
                    <title>clear-all-mapping</title>
                    <g id="Layer_2" data-name="Layer 2"><g id="clear-all-mapping">
                    <path class="cls-1" d="M473.5 102h-435q-16 0-27-11T.5 64t11-27 27-11h435q16 0 27 11t11 27-11 27-27 11zm0 174h-435q-16 0-27-11t-11-27 11-27.5 27-11.5h435q16 0 27 11.5t11 27.5-11 27-27 11zm-255 172h-180q-16 0-27-11.5T.5 410q0-17 11-28t27-11h180q17 0 28 11t11 28q0 15-11 26.5t-28 11.5zm248 64q-12 0-19-8l-141-141q-8-7-8-17.5t8-18.5 18.5-8 18.5 8l140 141q8 8 8 18t-8 18q-3 5-7.5 6.5t-9.5 1.5zm-142 0q-11 0-18-8-8-8-8-18t8-18l141-141q8-8 18.5-8t17.5 8q8 8 8 18t-8 18l-140 141q-7 8-19 8z"></path>
                    </g></g>
                    </svg>