<svg xmlns="http://www.w3.org/2000/svg" version="1.1" xmlns:xlink="http://www.w3.org/1999/xlink" viewBox="0 0 510 510" preserveAspectRatio="xMidYMid">
                    <defs><style>.cls-1{fill:#595959;}</style></defs>
                    <title>composition</title>
                    <g id="Layer_2" data-name="Layer 2"><g id="composition">
                    <path class="cls-1" d="M214 313q-11 0-18-7-7-8-7-18t7-18L447 19q8-8 18.5-8t17.5 8q8 8 8 18t-8 18L232 306q-7 7-18 7zm271-106q-11 0-18.5-7t-7.5-18V51H327q-10 0-17.5-7.5T302 25t7.5-18T327 0h158q11 0 18 7t7 18v157q0 11-7 18t-18 7zM27 455V316q0-14 9-23t23-9h139q14 0 23 9t9 23v139q0 14-9 23t-23 9H59q-14 0-23-9t-9-23zm32-145q-6 0-6 6v139q0 6 6 6h139q6 0 6-6V316q0-6-6-6H59zm139 202H59q-24 0-40.5-16.5T2 455V316q0-24 16.5-40.5T59 259h139q24 0 40.5 16.5T255 316v139q0 24-16.5 40.5T198 512z"></path>
                    </g></g>
                    </svg>