<svg xmlns="http://www.w3.org/2000/svg" version="1.1" xmlns:xlink="http://www.w3.org/1999/xlink" viewBox="0 0 510 510" preserveAspectRatio="xMidYMid">
                    <defs><style>.cls-1{fill:#595959;}</style></defs>
                    <title>connector</title>
                    <g id="Layer_2" data-name="Layer 2"><g id="connector">
                    <path class="cls-1" d="M483 224H29q-12 0-20.5-8.5T0 195q0-11 8.5-19.5T29 167h454q12 0 20.5 8.5T512 195q0 12-8.5 20.5T483 224zM78 415q-9 0-14.5-6.5T58 394v-84l-16 5q-8 2-16-1.5T16 302q-7-20 13-28l43-14q5-1 9.5-.5T91 263q8 6 8 17v114q0 8-5.5 14.5T78 415zm405 0q-8 0-14.5-6.5T462 394v-84l-15 5q-8 2-16.5-1.5T420 302q-3-9 1.5-16.5T434 274l42-14q9-4 20 3 9 6 9 17v114q0 8-6.5 14.5T483 415z"></path>
                    </g></g>
                    </svg>