<svg xmlns="http://www.w3.org/2000/svg" version="1.1" xmlns:xlink="http://www.w3.org/1999/xlink" viewBox="0 0 510 510" preserveAspectRatio="xMidYMid">
                    <defs><style>.cls-1{fill:#595959;}</style></defs>
                    <title>content-enricher</title>
                    <g id="Layer_2" data-name="Layer 2"><g id="content-enricher">
                    <path class="cls-1" d="M454 479H261q-24 0-41-20t-17-48q0-11 7.5-18.5T229 385t18 7.5 7 18.5q0 8 2.5 12t4.5 4h193q1 0 3.5-4t2.5-12V161q0-8-2.5-12t-4.5-5H261q-2 1-4.5 5t-2.5 12q0 11-7 18t-18 7-18.5-7-7.5-18q0-28 17-48t41-20h193q24 0 41 20t17 48v250q0 28-17 48t-41 20zM340 305H203q-8 0-13.5-5.5T184 285q0-8 5.5-13t13.5-5h137q8 0 13.5 5t5.5 13q0 20-19 20zm-33 51q-9 0-14-6-6-5-6-13t6-13l38-39-38-37q-6-5-6-13.5t6-14.5q5-5 13-5t14 5l52 52q5 6 5 14t-5 13l-52 51q-6 6-13 6zM0 236q0-13 9-23 8-8 24-8h95q16 0 23 8 10 10 10 23v97q0 14-10 23-7 8-23 8H33q-16 0-24-8-9-9-9-23v-97z"></path>
                    </g></g>
                    </svg>