<svg xmlns="http://www.w3.org/2000/svg" version="1.1" xmlns:xlink="http://www.w3.org/1999/xlink" viewBox="0 0 510 510" preserveAspectRatio="xMidYMid">
                    <defs><style>.cls-1{fill:#595959;}</style></defs>
                    <title>data-output-arrow</title>
                    <g id="Layer_2" data-name="Layer 2"><g id="data-output-arrow">
                    <path class="cls-1" d="M409 277l3-2h-3v2zm-59 41zm0-128h2l-2-1v1zm152 42q10 6 10 21 0 14-10 21L257 447q-8 5-15 5h-3q-11 0-18.5-7.5T213 426v-70H25q-10 0-17.5-7.5T0 330V176q0-10 7.5-17.5T25 151h188V80q0-11 7.5-18.5T239 54q1 0 1.5.5t2.5.5q8 0 14 5z"></path>
                    </g></g>
                    </svg>