<svg xmlns="http://www.w3.org/2000/svg" version="1.1" xmlns:xlink="http://www.w3.org/1999/xlink" viewBox="0 0 510 510" preserveAspectRatio="xMidYMid">
                    <defs><style>.cls-1{fill:#595959;}</style></defs>
                    <title>dependency</title>
                    <g id="Layer_2" data-name="Layer 2"><g id="dependency">
                    <path class="cls-1" d="M292 239q-11 0-18-7-8-8-8-18t8-18L450 19q8-8 18-8t18 8q7 8 7 18t-7 18L310 232q-7 7-18 7zm195-31q-11 0-18-7t-7-18V50H330q-11 0-18.5-7T304 25t7.5-18T330 0h157q11 0 18 7t7 18v158q0 11-7 18t-18 7zM28 506q-11 0-18-7t-7-17.5 7-17.5l177-177q8-8 18-8t18 8 8 18-8 18L46 499q-7 7-18 7z"></path>
                    </g></g>
                    </svg>