<svg xmlns="http://www.w3.org/2000/svg" version="1.1" xmlns:xlink="http://www.w3.org/1999/xlink" viewBox="0 0 510 510" preserveAspectRatio="xMidYMid">
                    <defs><style>.cls-1{fill:#595959;}</style></defs>
                    <title>exceptions</title>
                    <g id="Layer_2" data-name="Layer 2"><g id="exceptions">
                    <path class="cls-1" d="M71.75 461h370l-185-314zm414 51h-458q-15 0-23-13-7-13 1-25l229-390q7-11 21.5-11t21.5 11l230 390q7 11 0 25-8 13-22 13zm-229-161q-11 0-18.5-7t-7.5-18v-68q0-11 7.5-18t18.5-7q10 0 17 7t7 18v68q0 11-7 18t-17 7zm0 90q-14 0-24.5-10.5t-10.5-24.5 10.5-24 24.5-10 24 10 10 24-10 24.5-24 10.5z"></path>
                    </g></g>
                    </svg>