<svg xmlns="http://www.w3.org/2000/svg" version="1.1" xmlns:xlink="http://www.w3.org/1999/xlink" viewBox="0 0 510 510" preserveAspectRatio="xMidYMid">
                    <defs><style>.cls-1{fill:#595959;}</style></defs>
                    <title>float</title>
                    <g id="Layer_2" data-name="Layer 2"><g id="float">
                    <path class="cls-1" d="M142 426q12 0 20.5 8t8.5 20-8.5 20.5T142 483H28q-11 0-19.5-8.5T0 454t8.5-20 19.5-8h29V84H28q-11 0-19.5-8T0 55q0-11 8.5-19.5T28 27h57q12 0 20.5 8.5T114 55v371h28zm256-143v143h85q12 0 20.5 8t8.5 20-8.5 20.5T483 483H370q-12 0-20.5-8.5T341 454V255q0-12 8.5-20.5T370 226h85V84h-85q-12 0-20.5-8T341 55q0-11 8.5-19.5T370 27h113q12 0 20.5 8.5T512 55v200q0 12-8.5 20t-20.5 8h-85zm-142 86q12 0 20 8t8 20v86q0 11-8 19.5t-20 8.5q-11 0-20-8.5t-9-19.5v-86q0-12 9-20t20-8z"></path>
                    </g></g>
                    </svg>