<svg xmlns="http://www.w3.org/2000/svg" version="1.1" xmlns:xlink="http://www.w3.org/1999/xlink" viewBox="0 0 510 510" preserveAspectRatio="xMidYMid">
                    <defs><style>.cls-1{fill:#595959;}</style></defs>
                    <title>gateway</title>
                    <g id="Layer_2" data-name="Layer 2"><g id="gateway">
                    <path class="cls-1" d="M260.5 63q-12 0-20 8l-170 170q-8 8-8 19 0 9 8 19l170 170q19 17 38 0l170-170q9-9 9-19 0-12-9-19l-170-170q-7-8-18-8zm0 449q-34 0-58-24l-170-170q-25-24-25-57.5t25-58.5l170-170q24-24 57.5-24t57.5 24l170 170q25 25 25 58.5t-25 57.5l-170 170q-24 24-57 24z"></path>
                    </g></g>
                    </svg>