<svg xmlns="http://www.w3.org/2000/svg" version="1.1" xmlns:xlink="http://www.w3.org/1999/xlink" viewBox="0 0 510 510" preserveAspectRatio="xMidYMid">
                    <defs><style>.cls-1{fill:#595959;}</style></defs>
                    <title>generalization</title>
                    <g id="Layer_2" data-name="Layer 2"><g id="generalization">
                    <path class="cls-1" d="M28 504q-11 0-18-7-7-8-7-18t7-18L376 96q8-8 17.5-8t17.5 8 8 18-8 18L46 497q-7 7-18 7zm460-293q-11 0-18.5-7.5T462 185V53H330q-11 0-18.5-7T304 28t7.5-18.5T330 2h158q10 0 17 7.5t7 18.5v157q0 11-7 18.5t-17 7.5zm-3-6q-12 0-19-7L315 46q-8-8-8-18t8-18 18-8 17 8l152 151q8 8 8 18.5t-8 18.5q-7 7-17 7z"></path>
                    </g></g>
                    </svg>