<svg xmlns="http://www.w3.org/2000/svg" version="1.1" xmlns:xlink="http://www.w3.org/1999/xlink" viewBox="0 0 510 510" preserveAspectRatio="xMidYMid">
                    <defs><style>.cls-1{fill:#595959;}</style></defs>
                    <title>instance-specification</title>
                    <g id="Layer_2" data-name="Layer 2"><g id="instance-specification">
                    <path class="cls-1" d="M252 369q-4 0-10-2L47 286q-10-5-14-14.5t1-19.5q4-10 13.5-14t18.5 0l195 81q11 5 15 14t-1 20q-7 16-23 16zm6 5q-8 0-14.5-3.5T234 360q-5-11-1-20.5t14-14.5l192-87q10-5 19.5-1t14.5 14q4 9 .5 18.5T460 284l-192 88q-3 2-10 2zm-2-262q-8 0-13 2.5t-6 4.5q1 1 6 3.5t13 2.5q9 0 14-2.5t5-4.5q0-1-5-3.5t-14-2.5zm0 51q-24 0-41-13t-17-32q0-18 17-31.5T256 73q25 0 41.5 13.5T314 118q0 19-16.5 32T256 163zm26 284l153-69V158l-153 69v220zM77 158v220l154 69V227zM256 54l-142 64 142 64 142-64zm230 63v277q0 16-15 24l-204 92h-1q-6 2-10 2t-10-2h-1L41 418q-15-8-15-24V117q1-2 1-4t1-4v-1q0-1 .5-1t.5-1q2-3 5-5v-2q2-2 3.5-2.5T41 95L245 3q11-5 22 0l204 92q5 1 7 4v2q3 1 5 5 0 1 .5 1t.5 1v1q1 2 1 4t1 4z"></path>
                    </g></g>
                    </svg>