<svg xmlns="http://www.w3.org/2000/svg" version="1.1" xmlns:xlink="http://www.w3.org/1999/xlink" viewBox="0 0 510 510" preserveAspectRatio="xMidYMid">
                    <defs><style>.cls-1{fill:#595959;}</style></defs>
                    <title>interface</title>
                    <g id="Layer_2" data-name="Layer 2"><g id="interface">
                    <path class="cls-1" d="M256 510q-5 0-11-3L48 415Q0 389 0 345V242q0-11 7.5-18.5T26 216t18.5 7.5T52 242v103q0 12 20 24l184 86 186-88q8-3 13-9.5t5-12.5V242q0-11 7.5-18.5T486 216t18.5 7.5T512 242v103q0 23-13.5 42T463 415l-196 92q-6 3-11 3zm230-215q-11 0-18.5-7.5T460 269V166q0-8-7.5-14.5T440 143L256 56 70 143q-8 4-13 10t-5 13v103q0 11-7.5 18.5T26 295t-18.5-7.5T0 269V166q0-23 13.5-42T49 96L245 4q11-6 22 0l197 92q48 26 48 70v103q0 11-7.5 18.5T486 295zm-275 64v-15h30V167h-30v-15h90v15h-30v177h30v15h-90z"></path>
                    </g></g>
                    </svg>