<svg xmlns="http://www.w3.org/2000/svg" version="1.1" xmlns:xlink="http://www.w3.org/1999/xlink" viewBox="0 0 510 510" preserveAspectRatio="xMidYMid">
                    <defs><style>.cls-1{fill:#595959;}</style></defs>
                    <title>integer</title>
                    <g id="Layer_2" data-name="Layer 2"><g id="integer">
                    <path class="cls-1" d="M128.5 430q11 0 18.5 7t7.5 18-7.5 18-18.5 7h-103q-11 0-18-7t-7-18 7-18 18-7h27V123h-27q-11 0-18-7.5T.5 97t7-18.5 18-7.5h52q11 0 18 7.5t7 18.5v333h26zm179-359q11 0 18 7.5t7 18.5v179q0 11-7 18t-18 7h-77v129h77q11 0 18 7t7 18-7 18-18 7h-102q-11 0-18.5-7t-7.5-18V276q0-11 7.5-18.5t18.5-7.5h76V123h-76q-11 0-18.5-7.5T179.5 97t7.5-18.5 18.5-7.5h102zm179 0q11 0 18 7.5t7 18.5v358q0 11-7 18t-18 7h-90q-11 0-18-7t-7-18 7-18 18-7h65V301h-65q-11 0-18-7t-7-18 7-18.5 18-7.5h65V123h-65q-11 0-18-7.5t-7-18.5 7-18.5 18-7.5h90z"></path>
                    </g></g>
                    </svg>