<svg xmlns="http://www.w3.org/2000/svg" version="1.1" xmlns:xlink="http://www.w3.org/1999/xlink" viewBox="0 0 510 510" preserveAspectRatio="xMidYMid">
                    <defs><style>.cls-1{fill:#595959;}</style></defs>
                    <title>item-flow</title>
                    <g id="Layer_2" data-name="Layer 2"><g id="item-flow">
                    <path class="cls-1" d="M503 12q8 8 8 18t-8 18L326 225v156q0 8-4 14.5t-11 8.5q-4 2-10 2-11 0-18-7l-66-66L48 504q-7 7-19 7-11 0-18-7-7-8-7-18.5t7-17.5l171-171-58-57q-13-12-5-28 7-16 23-16h141L467 12q8-8 18-8t18 8z"></path>
                    </g></g>
                    </svg>