<svg xmlns="http://www.w3.org/2000/svg" version="1.1" xmlns:xlink="http://www.w3.org/1999/xlink" viewBox="0 0 510 510" preserveAspectRatio="xMidYMid">
                    <defs><style>.cls-1{fill:#595959;}</style></defs>
                    <title>local-process-call</title>
                    <g id="Layer_2" data-name="Layer 2"><g id="local-process-call">
                    <path class="cls-1" d="M431 488H295q-11 0-19-7.5t-8-18.5 8-19 19-8h136q11 0 19-8.5t8-19.5V82q0-11-8-19t-19-8H106q-11 0-19 8t-8 19v217q0 11-8 19t-19 8q-12 0-20-8t-8-19V82q0-34 24-58t58-24h325q34 0 57.5 24T512 82v325q0 34-23.5 57.5T431 488zm27-379H79q-11 0-19-8t-8-19V55q0-11 8-19t19-8h379q11 0 19 8t8 19v27q0 11-8 19t-19 8zM205 434H20q-8 0-14-6t-6-14q0-9 6-15t14-6h185q9 0 14.5 6t5.5 15q0 8-5.5 14t-14.5 6zm-51 67q-7 0-15-6-5-5-5-13.5t5-14.5l50-50-50-50q-12-14 0-28 6-6 14.5-6t14.5 6l64 63q6 6 6 14.5t-6 14.5l-64 64q-4 6-14 6z"></path>
                    </g></g>
                    </svg>