<svg xmlns="http://www.w3.org/2000/svg" version="1.1" xmlns:xlink="http://www.w3.org/1999/xlink" viewBox="0 0 510 510" preserveAspectRatio="xMidYMid">
                    <defs><style>.cls-1{fill:#595959;}</style></defs>
                    <title>more</title>
                    <g id="Layer_2" data-name="Layer 2"><g id="more">
                    <path class="cls-1" d="M467 301H45q-13 0-21.5-9T15 271q0-13 8.5-21.5T45 241h422q12 0 21 8.5t9 21.5q0 12-9 21t-21 9zm0-121H45q-13 0-21.5-8.5T15 150q0-12 8.5-21t21.5-9h422q12 0 21 9t9 21q0 13-9 21.5t-21 8.5zm0-120H45q-13 0-21.5-9T15 30q0-13 8.5-21.5T45 0h422q12 0 21 8.5t9 21.5q0 12-9 21t-21 9zM256 511q-5 0-11-1.5t-10-6.5l-91-91q-8-9-8.5-21.5T144 370q9-9 21.5-9t21.5 9l69 69 69-69q8-9 21-9t21 9q9 8 9 20.5t-9 21.5l-90 91q-7 8-21 8z"></path>
                    </g></g>
                    </svg>