<svg xmlns="http://www.w3.org/2000/svg" version="1.1" xmlns:xlink="http://www.w3.org/1999/xlink" viewBox="0 0 510 510" preserveAspectRatio="xMidYMid">
                    <defs><style>.cls-1{fill:#595959;}</style></defs>
                    <title>note-connection</title>
                    <g id="Layer_2" data-name="Layer 2"><g id="note-connection">
                    <path class="cls-1" d="M432.5 102q-10 0-17-7-8-8-8-18t8-18l50-49q8-8 17.5-8t17.5 8 8 17.5-8 17.5l-50 50q-6 7-18 7zm-401 410q-11 0-18-7-7-8-7-18t7-18l50-50q8-8 18-8t17 8q8 8 8 18t-8 18l-50 50q-7 7-17 7zm102-110q-11 0-18-7-8-8-8-18t8-18l50-50q8-8 18-8t18 8q7 8 7 18t-7 18l-51 50q-6 7-17 7zm100-100q-10 0-18-8-8-7-8-17t8-18l50-49q8-8 17.5-8t17.5 8q8 7 8 17t-8 17l-49 50q-8 8-18 8zm100-100q-11 0-18-7-8-8-8-18t8-18l50-50q8-7 18-7t17 7q8 8 8 18t-8 18l-50 50q-7 7-17 7z"></path>
                    </g></g>
                    </svg>