<svg xmlns="http://www.w3.org/2000/svg" version="1.1" xmlns:xlink="http://www.w3.org/1999/xlink" viewBox="0 0 510 510" preserveAspectRatio="xMidYMid">
                    <defs><style>.cls-1{fill:#595959;}</style></defs>
                    <title>note</title>
                    <g id="Layer_2" data-name="Layer 2"><g id="note">
                    <path class="cls-1" d="M53 458h406V53H53v405zm432 53H27q-11 0-19-7.5T0 485V26Q0 15 8 7.5T27 0h458q11 0 19 7.5t8 18.5v459q0 11-8 18.5t-19 7.5zM362 177H150q-11 0-18.5-8t-7.5-19 7.5-19 18.5-8h212q11 0 18.5 8t7.5 19-7.5 19-18.5 8zM256 428q-11 0-19-8t-8-19V163q0-11 8-18.5t19-7.5 18.5 7.5T282 163v238q0 11-7.5 19t-18.5 8z"></path>
                    </g></g>
                    </svg>