<svg xmlns="http://www.w3.org/2000/svg" version="1.1" xmlns:xlink="http://www.w3.org/1999/xlink" viewBox="0 0 510 510" preserveAspectRatio="xMidYMid">
                    <defs><style>.cls-1{fill:#595959;}</style></defs>
                    <title>parallel-gateway</title>
                    <g id="Layer_2" data-name="Layer 2"><g id="parallel-gateway">
                    <path class="cls-1" d="M261 62q-10 0-20 8L75 237q-9 7-9 19 0 10 9 19l166 166q8 8 19 8t19-8l167-166q9-9 9-19 0-12-9-19L279 70q-8-8-18-8zm0 442q-32 0-58-24L36 312q-24-23-24-56t24-57L203 32q24-24 57-24t57 24l167 167q24 24 24 57t-24 56L317 480q-24 24-56 24zm80-221H179q-11 0-19-8.5t-8-19.5 8-19 19-8h162q11 0 19 8t8 19-8 19.5-19 8.5zm-80 80q-12 0-20-7.5t-8-18.5V175q0-11 8-19t20-8q11 0 18.5 8t7.5 19v162q0 11-7.5 18.5T261 363z"></path>
                    </g></g>
                    </svg>