<svg xmlns="http://www.w3.org/2000/svg" version="1.1" xmlns:xlink="http://www.w3.org/1999/xlink" viewBox="0 0 510 510" preserveAspectRatio="xMidYMid">
                    <defs><style>.cls-1{fill:#595959;}</style></defs>
                    <title>parts</title>
                    <g id="Layer_2" data-name="Layer 2"><g id="parts">
                    <path class="cls-1" d="M1.357 265V143q0-12 9-22 11-9 22-9h99q-10-19-9-40 0-17 10-34 12-17 27-25 20-10 39-10 20 0 36 11 18 11 25 27 5 8 7 17t3 19q2 18-9 35h99q14 0 21 9 9 9 9 22v111q24-16 47-16 26 0 46 17 21 16 27 42 6 38-16 64-21 29-57 29-26 0-47-18v109q0 14-9 22-9 9-21 9h-327q-11 0-22-9-9-9-9-22V339q0-6 6-7h2q8 0 8 3 17 26 48 26 26 0 44-22 17-21 11-49-4-21-19-34-8-5-17-8.5t-19-3.5q-31 0-48 26 0 4-8 4h-2q-6-3-6-9z"></path>
                    </g></g>
                    </svg>