<svg xmlns="http://www.w3.org/2000/svg" version="1.1" xmlns:xlink="http://www.w3.org/1999/xlink" viewBox="0 0 510 510" preserveAspectRatio="xMidYMid">
                    <defs><style>.cls-1{fill:#595959;}</style></defs>
                    <title>pool</title>
                    <g id="Layer_2" data-name="Layer 2"><g id="pool">
                    <path class="cls-1" d="M127 51q-3 1-7.5 9T115 83v345q0 15 4.5 23.5t7.5 8.5h259q2 0 6.5-8.5T397 428V83q0-15-5-23t-7-9H127zm259 460H127q-27 0-45-24t-18-59V83q0-35 18-59t45-24h259q26 0 44 24t18 59v345q0 35-18 59t-44 24zm-130 0q-11 0-18.5-7t-7.5-18V26q0-11 7.5-18.5T256 0t18 7.5 7 18.5v460q0 11-7 18t-18 7zm153-409H102q-11 0-18-7t-7-18V51q0-11 7-18t18-7h307q11 0 18.5 7t7.5 18v26q0 11-7.5 18t-18.5 7z"></path>
                    </g></g>
                    </svg>