<svg xmlns="http://www.w3.org/2000/svg" version="1.1" xmlns:xlink="http://www.w3.org/1999/xlink" viewBox="0 0 510 510" preserveAspectRatio="xMidYMid">
                    <defs><style>.cls-1{fill:#595959;}</style></defs>
                    <title>port</title>
                    <g id="Layer_2" data-name="Layer 2"><g id="port">
                    <path class="cls-1" d="M53 458h406V53H53v405zm432 53H27q-11 0-19-7.5T0 485V26Q0 15 8 7.5T27 0h458q11 0 19 7.5t8 18.5v459q0 11-8 18.5t-19 7.5zM303 381q-11 0-18-8-8-8-8-18.5t8-18.5l87-87-87-88q-8-8-8-18.5t8-18.5 18.5-8 18.5 8l107 106q8 7 8 18.5t-8 18.5L322 373q-8 8-19 8zm-92 0q-11 0-19-8L87 267q-8-8-8-18.5t8-18.5l105-106q8-8 19-8t19 8 8 18.5-8 18.5l-87 88 87 87q8 8 8 18.5t-8 18.5-19 8z"></path>
                    </g></g>
                    </svg>