<svg xmlns="http://www.w3.org/2000/svg" version="1.1" xmlns:xlink="http://www.w3.org/1999/xlink" viewBox="0 0 510 510" preserveAspectRatio="xMidYMid">
                    <defs><style>.cls-1{fill:#595959;}</style></defs>
                    <title>private-cloud</title>
                    <g id="Layer_2" data-name="Layer 2"><g id="private-cloud">
                    <path class="cls-1" d="M108.788 288.437q-23.954 0-40.92 20.46T50.9 358.3t16.966 48.905 40.92 19.96h272.468q32.936 0 55.891-26.947t22.955-65.871q0-39.922-22.955-66.87t-55.89-26.947h-5.989q-18.963 0-24.951-15.969-10.979-34.931-37.427-56.888T255.5 145.715q-20.96 0-38.924 8.983t-31.439 24.951-21.458 37.427-7.984 46.41q0 10.978-6.986 17.964t-17.965 6.987h-21.957zm272.467 189.63H108.788q-21.958 0-41.919-9.482t-34.931-25.95T8.483 404.71 0 358.3t8.483-46.41 22.956-37.925 33.434-26.448 40.92-9.98q3.993-29.942 17.466-56.39t33.435-45.412 45.411-29.942 53.396-10.978q42.916 0 79.844 25.95t56.889 69.863q25.95 1.996 47.407 13.972t37.926 31.439 25.45 44.413T512 334.347q0 29.941-9.98 56.39t-27.946 45.91-41.918 30.44-50.9 10.98zM287.44 304.404l-73.856.999h-.998l1.996 54.892h73.856zm.998 93.817h-74.854q-16.967 0-27.447-10.48t-10.48-27.446v-55.89q0-16.967 10.48-27.447t27.447-10.48h74.854q15.968 0 26.448 10.48t10.48 27.446v55.891q0 16.967-10.48 27.447t-26.448 10.48zM233.544 266.48h34.932v-17.965q0-7.985-4.99-12.975t-11.977-4.99q-7.985 0-12.975 4.99t-4.99 12.975v17.965zm54.893 38.924h-74.854q-7.985 0-13.474-5.989t-5.49-13.973v-36.927q0-22.956 16.469-39.423t40.42-16.468q22.956 0 39.424 16.468t16.468 39.423v36.927q0 7.985-5.49 13.973t-13.473 5.989z"></path>
                    </g></g>
                    </svg>