<svg xmlns="http://www.w3.org/2000/svg" version="1.1" xmlns:xlink="http://www.w3.org/1999/xlink" viewBox="0 0 510 510" preserveAspectRatio="xMidYMid">
                    <defs><style>.cls-1{fill:#595959;}</style></defs>
                    <title>process-package</title>
                    <g id="Layer_2" data-name="Layer 2"><g id="process-package">
                    <path class="cls-1" d="M202.5 482q-8 0-14-5l-151-100q-5-3-8-9t-3-12V155q0-14 12-21l100-63q14-8 27 0l201 125q12 7 12 22v88q0 11-7 18t-18 7-18-7-7-18v-74l-176-110-76 47v174l140 93q8 5 10.5 15.5t-3.5 19.5q-8 11-21 11zm252-226q-11 0-18-7.5t-7-18.5v-61l-190-119q-9-5-11-15.5t3-18.5q5-9 15.5-11.5T266.5 8l201 126q12 7 12 21v75q0 11-7 18.5t-18 7.5zm-252 120q-6 0-14-3l-50-34q-8-5-10.5-15.5t3.5-18.5q5-9 15.5-11t19.5 4l50 32q8 6 10.5 16t-3.5 19q-7 11-21 11zm67 136q-8 0-13-5-6-5-6-13t6-14l43-43-43-42q-6-5-6-13.5t6-13.5q5-6 13.5-6t13.5 6l55 56q6 6 6 13 0 8-6 14l-55 56q-5 5-14 5zm70 0q-8 0-13-5-6-5-6-13t6-14l43-43-43-42q-6-5-6-13.5t6-13.5q14-14 27 0l56 56q6 4 6 13t-6 14l-56 56q-5 5-14 5zm71 0q-9 0-14-5-6-5-6-13t6-14l43-43-43-42q-6-5-6-13.5t6-13.5q6-6 14-6t13 6l56 56q6 4 6 13t-6 14l-56 56q-5 5-13 5z"></path>
                    </g></g>
                    </svg>