<svg xmlns="http://www.w3.org/2000/svg" version="1.1" xmlns:xlink="http://www.w3.org/1999/xlink" viewBox="0 0 510 510" preserveAspectRatio="xMidYMid">
                    <defs><style>.cls-1{fill:#595959;}</style></defs>
                    <title>progress-group</title>
                    <g id="Layer_2" data-name="Layer 2"><g id="progress-group">
                    <path class="cls-1" d="M53 458h406V53H53v405zm432 53H27q-11 0-19-7.5T0 485V26Q0 15 8 7.5T27 0h458q11 0 19 7.5t8 18.5v459q0 11-8 18.5t-19 7.5zM161 325h158q3 0 5-2l44-67-44-68q-2-2-5-2H161l37 55q10 14 0 29zm158 54H111q-14 0-23-14-7-13 1-28l55-81-55-82q-8-13-1-28 9-14 23-14h208q32 0 49 27l54 82q11 14 0 29l-54 82q-17 27-49 27z"></path>
                    </g></g>
                    </svg>