<svg xmlns="http://www.w3.org/2000/svg" version="1.1" xmlns:xlink="http://www.w3.org/1999/xlink" viewBox="0 0 510 510" preserveAspectRatio="xMidYMid">
                    <defs><style>.cls-1{fill:#595959;}</style></defs>
                    <title>provided-interface</title>
                    <g id="Layer_2" data-name="Layer 2"><g id="provided-interface">
                    <path class="cls-1" d="M375 51q-36 0-61 24.5T289 137q0 36 25 61t61 25q37 0 61.5-25t24.5-61q0-37-24.5-61.5T375 51zm0 222q-29 0-54-10.5t-43.5-29-29-43.5-10.5-53q0-29 10.5-54t29-43.5 43.5-29T375 0t54 10.5 43.5 29 29 43.5 10.5 54q0 28-10.5 53t-29 43.5-43.5 29-54 10.5zM29 509q-12 0-19-7-7-8-7-18.5t7-18.5l267-267q8-8 18.5-8t18.5 8 8 18-8 18L46 502q-7 7-17 7z"></path>
                    </g></g>
                    </svg>