<svg xmlns="http://www.w3.org/2000/svg" version="1.1" xmlns:xlink="http://www.w3.org/1999/xlink" viewBox="0 0 510 510" preserveAspectRatio="xMidYMid">
                    <defs><style>.cls-1{fill:#595959;}</style></defs>
                    <title>quantity-kind</title>
                    <g id="Layer_2" data-name="Layer 2"><g id="quantity-kind">
                    <path class="cls-1" d="M484 511H113q-11 0-18.5-7T87 486t7.5-18.5T113 460h371q11 0 18.5 7.5T510 486t-7.5 18-18.5 7zm3 0q-11 0-18.5-7t-7.5-18V26q0-11 7.5-18.5T487 0t18 7.5 7 18.5v460q0 11-7 18t-18 7zm0-460H26q-11 0-18.5-7.5T0 26Q0 15 7.5 7.5T26 0h461q11 0 18 7.5t7 18.5q0 10-7 17.5T487 51zM111 508q-11 0-18-7.5T86 482V111q0-11 7-18t18-7 18.5 7 7.5 18v371q0 11-7.5 18.5T111 508zm0-371q-10 0-18-8L14 50q-8-8-8-18.5T14 14q8-8 18-8t18 8l79 79q8 8 8 18t-8 18-18 8zm76 286h-67q-11 0-18.5-7.5T94 397q0-10 7.5-17.5T120 372h67q11 0 18.5 7.5T213 397q0 11-7.5 18.5T187 423zm0-106h-67q-11 0-18.5-7.5T94 291t7.5-18 18.5-7h67q11 0 18.5 7t7.5 18-7.5 18.5T187 317zm0-111h-67q-11 0-18.5-7.5T94 180t7.5-18 18.5-7h67q11 0 18.5 7t7.5 18-7.5 18.5T187 206z"></path>
                    </g></g>
                    </svg>