<svg xmlns="http://www.w3.org/2000/svg" version="1.1" xmlns:xlink="http://www.w3.org/1999/xlink" viewBox="0 0 510 510" preserveAspectRatio="xMidYMid">
                    <defs><style>.cls-1{fill:#595959;}</style></defs>
                    <title>realization</title>
                    <g id="Layer_2" data-name="Layer 2"><g id="realization">
                    <path class="cls-1" d="M292.5 237q-11 0-18-7-8-7-8-17t8-18l101-101q8-8 18-8t18 8q8 7 8 17.5t-8 17.5l-101 101q-7 7-18 7zm194-30q-11 0-18-7t-7-18V51h-130q-11 0-18-7t-7-18q0-10 7-17t18-7h155q11 0 18 7t7 17v156q0 11-7 18t-18 7zm-458 303q-10 0-18-8-7-8-7-17.5t7-17.5l161-161q8-8 18-8t17 8q8 8 8 18t-8 17l-161 161q-8 8-17 8zm456-307q-8 0-17-7l-150-150q-8-8-8-18t8-18 18-8 17 8l150 150q8 8 8 18t-8 18q-7 7-18 7z"></path>
                    </g></g>
                    </svg>