<svg xmlns="http://www.w3.org/2000/svg" version="1.1" xmlns:xlink="http://www.w3.org/1999/xlink" viewBox="0 0 510 510" preserveAspectRatio="xMidYMid">
                    <defs><style>.cls-1{fill:#595959;}</style></defs>
                    <title>receive-task</title>
                    <g id="Layer_2" data-name="Layer 2"><g id="receive-task">
                    <path class="cls-1" d="M77.5 123q-11 0-18 7t-7 18v255q0 11 7 19t18 8h357q11 0 19-8t8-19V148q0-11-8-18t-19-7h-357zm357 357h-357q-32 0-54.5-22.5T.5 403V148q0-32 22.5-54.5T77.5 71h357q32 0 54.5 22.5t22.5 54.5v255q0 32-22.5 54.5T434.5 480zm-180-188q-21 0-41-13l-175-109q-10-6-12-16.5t4-19.5q5-8 15-10.5t20 2.5l176 110q5 4 13 4t13-4l177-110q9-5 20-2.5t16 10.5q6 9 3 19.5t-12 16.5l-176 109q-9 5-19.5 9t-21.5 4z"></path>
                    </g></g>
                    </svg>