<svg xmlns="http://www.w3.org/2000/svg" version="1.1" xmlns:xlink="http://www.w3.org/1999/xlink" viewBox="0 0 510 510" preserveAspectRatio="xMidYMid">
                    <defs><style>.cls-1{fill:#595959;}</style></defs>
                    <title>references</title>
                    <g id="Layer_2" data-name="Layer 2"><g id="references">
                    <path class="cls-1" d="M461 409H359v51h102v-51zm26-51q11 0 18 7.5t7 18.5v102q0 11-7 18t-18 7H333q-11 0-18.5-7t-7.5-18v-26h-25q-22 0-36.5-15T231 409V102h-26v26q0 11-7.5 18t-18.5 7H26q-11 0-18.5-7T0 128V26Q0 15 7.5 7.5T26 0h153q11 0 18.5 7.5T205 26v25h26q21 0 36 15t15 36v307h25v-25q0-11 7.5-18.5T333 358h154z"></path>
                    </g></g>
                    </svg>