<svg xmlns="http://www.w3.org/2000/svg" version="1.1" xmlns:xlink="http://www.w3.org/1999/xlink" viewBox="0 0 510 510" preserveAspectRatio="xMidYMid">
                    <defs><style>.cls-1{fill:#595959;}</style></defs>
                    <title>required-interface</title>
                    <g id="Layer_2" data-name="Layer 2"><g id="required-interface">
                    <path class="cls-1" d="M375.75 272q-29 0-54-10.5t-43.5-28.5-29-43-10.5-54q0-45 26.5-81t69.5-49q20-6 41-6 11 0 18.5 7t7.5 18-7.5 18.5-18.5 7.5q-7 0-13.5.5t-11.5 2.5q-28 8-44.5 30.5t-16.5 51.5q0 36 24.5 61t61.5 25q33 0 56.5-21t28.5-53q1-11 9.5-18t19.5-5 17 10 4 19q-7 52-44.5 85t-90.5 33zm-346 235q-12 0-19-7-7-8-7-18t7-18l267-266q8-8 18-8t18 8q8 7 8 17t-8 18l-267 267q-7 7-17 7z"></path>
                    </g></g>
                    </svg>