<svg xmlns="http://www.w3.org/2000/svg" version="1.1" xmlns:xlink="http://www.w3.org/1999/xlink" viewBox="0 0 510 510" preserveAspectRatio="xMidYMid">
                    <defs><style>.cls-1{fill:#595959;}</style></defs>
                    <title>router</title>
                    <g id="Layer_2" data-name="Layer 2"><g id="router">
                    <path class="cls-1" d="M461 301q0-11-7.5-18t-18.5-7-18 7-7 18v102q0 11 7 19t18 8 18.5-8 7.5-19V301zm-90 0q0-11-7-18t-18-7-18 7-7 18v102q0 11 7 19t18 8 18-8 7-19V301zm-89 0q0-11-7.5-18t-18.5-7-18 7-7 18v102q0 11 7 19t18 8 18.5-8 7.5-19V301zm-90 0q0-11-7-18t-18-7-18.5 7-7.5 18v102q0 11 7.5 19t18.5 8 18-8 7-19V301zm-90 0q0-11-7-18t-18-7-18 7-7 18v102q0 11 7 19t18 8 18-8 7-19V301zm308-77q44 0 73 25.5t29 62.5v81q0 37-29 62t-73 25H102q-43 0-72.5-25T0 393v-81q0-37 29.5-62.5T102 224V96q0-11 7.5-18.5T128 70t18.5 7.5T154 96v128h205V96q0-11 7.5-18.5T385 70t18 7.5 7 18.5v128z"></path>
                    </g></g>
                    </svg>