<svg xmlns="http://www.w3.org/2000/svg" version="1.1" xmlns:xlink="http://www.w3.org/1999/xlink" viewBox="0 0 510 510" preserveAspectRatio="xMidYMid">
                    <defs><style>.cls-1{fill:#595959;}</style></defs>
                    <title>satellite</title>
                    <g id="Layer_2" data-name="Layer 2"><g id="satellite">
                    <path class="cls-1" d="M385.5 91l-194 193 36 37 194-194zm-158 281q-22 0-36-15l-36-36q-15-15-15-37 0-20 15-35l194-195q14-14 36-14t36 14l36 37q15 13 15 36 0 19-15 36l-194 194q-13 15-36 15zm214 132l-145-144 71-71 145 144zm-289-289L7.5 71l71-71 145 144zm3 217q-7 0-13-3-18-11-33-26.5t-27-32.5q-5-9-2.5-19.5T91.5 335t19.5-3.5 15.5 11.5q16 24 43 42 9 6 11 16.5t-3 19.5q-6 11-22 11zm-31 77q-6 0-12-3-34-19-61.5-46T5.5 400q-5-10-1.5-20t12.5-15q10-5 20-2t15 12q29 56 85 85 10 5 13 15.5t-2 19.5q-8 14-23 14z"></path>
                    </g></g>
                    </svg>