<svg xmlns="http://www.w3.org/2000/svg" version="1.1" xmlns:xlink="http://www.w3.org/1999/xlink" viewBox="0 0 510 510" preserveAspectRatio="xMidYMid">
                    <defs><style>.cls-1{fill:#595959;}</style></defs>
                    <title>send-task</title>
                    <g id="Layer_2" data-name="Layer 2"><g id="send-task">
                    <path class="cls-1" d="M264 231q-9 5-19 0L25 91q12-13 28.5-20.5T90 63h332q20 0 36.5 7.5T487 90l-59 39zm247-88q0 2 .5 4.5t.5 5.5v237q0 37-26 64t-64 27H90q-38 0-64-27T0 390V153q0-2 .5-4t.5-5l50 33 164 102q18 12 40 12t40-12l164-102z"></path>
                    </g></g>
                    </svg>