<svg xmlns="http://www.w3.org/2000/svg" version="1.1" xmlns:xlink="http://www.w3.org/1999/xlink" viewBox="0 0 510 510" preserveAspectRatio="xMidYMid">
                    <defs><style>.cls-1{fill:#595959;}</style></defs>
                    <title>solution</title>
                    <g id="Layer_2" data-name="Layer 2"><g id="solution">
                    <path class="cls-1" d="M341 131q-24 0-44.5 9T261 164.5 237 201t-9 45 9 44.5 24 35.5 35.5 24 44.5 9 45-9 36-24 24-35.5 9-44.5-9-45-24-36.5-36-24.5-45-9zm0 285q-35 0-66-13.5T221 366t-36.5-54-13.5-66q0-36 13.5-67t36.5-54 54-36.5T341 75t66.5 13.5T462 125t36.5 54 13.5 67q0 35-13.5 66T462 366t-54.5 36.5T341 416zm0-170q0 35-13.5 66T291 366t-54 36.5-66 13.5-66-13.5T50.5 366t-37-54T0 246q0-36 13.5-67t37-54T105 88.5 171 75t66 13.5 54 36.5 36.5 54 13.5 67z"></path>
                    </g></g>
                    </svg>