<svg xmlns="http://www.w3.org/2000/svg" version="1.1" xmlns:xlink="http://www.w3.org/1999/xlink" viewBox="0 0 510 510" preserveAspectRatio="xMidYMid">
                    <defs><style>.cls-1{fill:#595959;}</style></defs>
                    <title>start-timer-event</title>
                    <g id="Layer_2" data-name="Layer 2"><g id="start-timer-event">
                    <path class="cls-1" d="M262 51q-45 0-84 16t-67.5 44T66 176.5 50 256t16 79.5 44.5 65T178 444t84 16q41 0 77-16t63-43.5 43-65 16-79.5-16-79.5-43-65.5-63-44-77-16zm0 460q-57 0-105-20t-83-54.5-54.5-81T0 256t19.5-100T74 74.5 157 20 262 0q53 0 98.5 20t79 54.5 53 81.5T512 256t-19.5 99.5-53 81-79 54.5-98.5 20zm0-340q-19 0-35.5 6.5t-29 18T178 222t-7 32 7 32 19.5 26.5 29 18T262 337q15 0 29-6.5t25.5-18T335 286t7-32-7-32-18.5-26.5-25.5-18-29-6.5zm0 205q-27 0-50.5-9.5t-41.5-26-28.5-39T131 254t10.5-47.5 28.5-39 41.5-26T262 132q22 0 43.5 9.5t38 26 27 39T381 254t-10.5 47.5-27 39-38 26T262 376zm29-96h-29q-16 0-18.5-5.5T241 260v-51q0-8 2.5-13t18.5-5q7 0 8 5t1 13v33h20q8 0 14 5t6 13q0 9-6 14.5t-14 5.5z"></path>
                    </g></g>
                    </svg>