<svg xmlns="http://www.w3.org/2000/svg" version="1.1" xmlns:xlink="http://www.w3.org/1999/xlink" viewBox="0 0 510 510" preserveAspectRatio="xMidYMid">
                    <defs><style>.cls-1{fill:#595959;}</style></defs>
                    <title>status-suspended</title>
                    <g id="Layer_2" data-name="Layer 2"><g id="status-suspended">
                    <path class="cls-1" d="M359 165q0-16-11.5-27T320 127t-27 11-11 27v179q0 17 11 28t27 11 27.5-11 11.5-28V165zm-141 0q0-16-11-27t-27-11-27.5 11-11.5 27v179q0 17 11.5 28t27.5 11 27-11 11-28V165zM461-1q21 0 36 15t15 36v410q0 21-15 36t-36 15H51q-21 0-36-15T0 460V50q0-21 15-36T51-1h410z"></path>
                    </g></g>
                    </svg>