<svg xmlns="http://www.w3.org/2000/svg" version="1.1" xmlns:xlink="http://www.w3.org/1999/xlink" viewBox="0 0 510 510" preserveAspectRatio="xMidYMid">
                    <defs><style>.cls-1{fill:#595959;}</style></defs>
                    <title>status-activating</title>
                    <g id="Layer_2" data-name="Layer 2"><g id="status-activating">
                    <path class="cls-1" d="M398 210q-36-2-69 10t-58.5 34.5-41.5 54-18 68.5q-2 30 6.5 58.5T242 487H49q-20 0-34-14.5T1 438V49q0-20 14-34.5T49 0h390q20 0 34.5 14.5T488 49v193q-40-29-90-32zm-9 264q17 0 32.5-6.5t26.5-18 17.5-26.5 6.5-33q0-34-24-58.5T389 307q-34 0-58.5 24.5T306 390q0 18 6.5 33t18 26.5 26.5 18 32 6.5zm0-205q25 0 47.5 9.5t39 26 26 38.5 9.5 47-9.5 47.5-26 39-39 26T389 512t-47.5-9.5-39-26-26-39T267 390t9.5-47 26-38.5 39-26T389 269zm39 109q8 0 13.5 5.5T447 397t-5.5 13.5T428 416h-39q-8 0-13.5-5.5T370 397v-51q0-8 5.5-13.5T389 327t14 5.5 6 13.5v32h19z"></path>
                    </g></g>
                    </svg>