<svg xmlns="http://www.w3.org/2000/svg" version="1.1" xmlns:xlink="http://www.w3.org/1999/xlink" viewBox="0 0 510 510" preserveAspectRatio="xMidYMid">
                    <defs><style>.cls-1{fill:#595959;}</style></defs>
                    <title>status-terminating</title>
                    <g id="Layer_2" data-name="Layer 2"><g id="status-terminating">
                    <path class="cls-1" d="M385 208q-37 0-69.5 14T259 260t-38 56-14 68q0 21 4.5 39.5T224 459H27q-14 0-23-12-7-15 1-26L242 17q7-12 22-12t22 12l113 191h-14zm5 265q35 0 59.5-24t24.5-59-24.5-59.5T390 306t-59 24.5-24 59.5 24 59 59 24zm0-205q25 0 47.5 9.5t39 26 26 38.5 9.5 48q0 25-9.5 47.5t-26 39-39 26T390 512t-47.5-9.5-39-26-26-39T268 390q0-26 9.5-48t26-38.5 39-26T390 268zm38 109q8 0 14 5.5t6 13.5-6 14-14 6h-38q-8 0-13.5-6t-5.5-14v-51q0-19 19-19 8 0 13.5 5.5T409 345v32h19z"></path>
                    </g></g>
                    </svg>