<svg xmlns="http://www.w3.org/2000/svg" version="1.1" xmlns:xlink="http://www.w3.org/1999/xlink" viewBox="0 0 510 510" preserveAspectRatio="xMidYMid">
                    <defs><style>.cls-1{fill:#595959;}</style></defs>
                    <title>sub-process-marker</title>
                    <g id="Layer_2" data-name="Layer 2"><g id="sub-process-marker">
                    <path class="cls-1" d="M336 284H176q-11 0-18.5-7.5T150 258t7.5-18.5T176 232h160q11 0 18.5 7.5T362 258t-7.5 18.5T336 284zm-80 80q-11 0-19-8t-8-19V179q0-11 8-19t19-8 18.5 8 7.5 19v158q0 11-7.5 19t-18.5 8zM53 458h406V53H53v405zm432 53H27q-11 0-19-7.5T0 485V26Q0 15 8 7.5T27 0h458q11 0 19 7.5t8 18.5v459q0 11-8 18.5t-19 7.5z"></path>
                    </g></g>
                    </svg>