<svg xmlns="http://www.w3.org/2000/svg" version="1.1" xmlns:xlink="http://www.w3.org/1999/xlink" viewBox="0 0 510 510" preserveAspectRatio="xMidYMid">
                    <defs><style>.cls-1{fill:#595959;}</style></defs>
                    <title>systemtracks</title>
                    <g id="Layer_2" data-name="Layer 2"><g id="systemtracks">
                    <path class="cls-1" d="M460 274q0-5-5-5h-99q-11 0-18.5-7t-7.5-18q0-8 4.5-14t10.5-9v-49q0-5-5-5h-99q-11 0-18-7.5t-7-18.5q0-16 15-23V55q0-4-3-4H56q-4 0-4 4v172q0 3 4 3h46q0-11 7-18t18-7 18.5 7 7.5 18v124q0 5 5 5h58v-1q0-11 7.5-18.5T242 332t18 7.5 7 18.5v98q0 5 5 5h183q5 0 5-5V274zm-5-56q23 0 39.5 16.5T511 274v182q0 23-16.5 39.5T455 512H272q-23 0-39.5-16.5T216 456v-46h-58q-23 0-39.5-16.5T102 354v-73H56q-23 0-39-15.5T1 227V55q0-23 16-39T56 0h172q23 0 38.5 16T282 55v61h58q23 0 39.5 16.5T396 172v46h59zm-39 96q8 0 13.5 5t5.5 13v79q0 8-5.5 13.5T416 430h-83q-8 0-13.5-5.5T314 411t5.5-13.5T333 392h43L97 113q-5-5-5-13.5T97 86q14-12 28 0l272 272v-26q0-8 5.5-13t13.5-5z"></path>
                    </g></g>
                    </svg>