<svg xmlns="http://www.w3.org/2000/svg" version="1.1" xmlns:xlink="http://www.w3.org/1999/xlink" viewBox="0 0 510 510" preserveAspectRatio="xMidYMid">
                    <defs><style>.cls-1{fill:#595959;}</style></defs>
                    <title>system</title>
                    <g id="Layer_2" data-name="Layer 2"><g id="system">
                    <path class="cls-1" d="M53 459h406V53H53v406zm432 53H27q-11 0-19-7.5T0 486V27Q0 16 8 8t19-8h458q11 0 19 8t8 19v459q0 11-8 18.5t-19 7.5zM53 459h406V53H53v406zm432 53H27q-11 0-19-7.5T0 486V27Q0 16 8 8t19-8h458q11 0 19 8t8 19v459q0 11-8 18.5t-19 7.5z"></path>
                    </g></g>
                    </svg>