<svg xmlns="http://www.w3.org/2000/svg" version="1.1" xmlns:xlink="http://www.w3.org/1999/xlink" viewBox="0 0 510 510" preserveAspectRatio="xMidYMid">
                    <defs><style>.cls-1{fill:#595959;}</style></defs>
                    <title>technicalscenario</title>
                    <g id="Layer_2" data-name="Layer 2"><g id="technicalscenario">
                    <path class="cls-1" d="M461 409l-26-15-25 15v30l25 14 26-14v-30zm-359 0l-25-15-26 15v30l26 14 25-14v-30zm129-305l25 15 26-15V74l-26-14-25 14v30zm281 275v89l-77 44-76-44v-89l51-29v-37q0-4-1-5l-1-1H103q0 1-.5 2t-.5 4v37l52 29v89l-77 44-77-44v-89l51-29v-37q0-24 15-40.5t36-16.5h129v-93l-52-30V44l77-44 77 44v89l-51 30v93h128q21 0 36 16.5t15 40.5v37z"></path>
                    </g></g>
                    </svg>