<svg xmlns="http://www.w3.org/2000/svg" version="1.1" xmlns:xlink="http://www.w3.org/1999/xlink" viewBox="0 0 510 510" preserveAspectRatio="xMidYMid">
                    <defs><style>.cls-1{fill:#595959;}</style></defs>
                    <title>terminate-end-event</title>
                    <g id="Layer_2" data-name="Layer 2"><g id="terminate-end-event">
                    <path class="cls-1" d="M256 89q-35 0-65.5 13t-53 35.5-35.5 53T89 256t13 65 35.5 52.5 53 35.5 65.5 13 65.5-13 53-35.5 35-52.5 12.5-65-12.5-65.5-35-53-53-35.5T256 89zm0 422q-53 0-99.5-20T75 436.5t-55-81T0 256t20-100 55-81.5T156.5 20 256 0t99.5 20T437 74.5t55 81.5 20 100-20 99.5-55 81-81.5 54.5-99.5 20zm0-153q-21 0-39.5-8T184 328t-22-32.5-8-39.5 8-39.5 22-33 32.5-22.5 39.5-8 40 8 33 22.5 22 33 8 39.5-8 39.5-22 32.5-33 22-40 8z"></path>
                    </g></g>
                    </svg>