<svg xmlns="http://www.w3.org/2000/svg" version="1.1" xmlns:xlink="http://www.w3.org/1999/xlink" viewBox="0 0 510 510" preserveAspectRatio="xMidYMid">
                    <defs><style>.cls-1{fill:#595959;}</style></defs>
                    <title>throughput-backlog</title>
                    <g id="Layer_2" data-name="Layer 2"><g id="throughput-backlog">
                    <path class="cls-1" d="M74.5 256q-11 0-18-7-8-8-8-18t8-18l193-193q8-8 18-8t18 8 8 18-8 18l-193 193q-7 7-18 7zm210-69q-11 0-18.5-7.5t-7.5-18.5V53h-108q-11 0-18.5-7t-7.5-18T132 9.5 150.5 2h134q11 0 18.5 7.5t7.5 18.5v133q0 11-7.5 18.5t-18.5 7.5zm-257 179h92q9 0 9 9v128q0 9-9 9h-92q-9 0-9-9V375q0-9 9-9zm174-101q0-9 9-9h91q9 0 9 9v239q0 8-9 8h-91q-9 0-9-8V265zm183-256q0-9 9-9h91q9 0 9 9v494q0 9-9 9h-91q-9 0-9-9V9z"></path>
                    </g></g>
                    </svg>