<svg xmlns="http://www.w3.org/2000/svg" version="1.1" xmlns:xlink="http://www.w3.org/1999/xlink" viewBox="0 0 510 510" preserveAspectRatio="xMidYMid">
                    <defs><style>.cls-1{fill:#595959;}</style></defs>
                    <title>unit</title>
                    <g id="Layer_2" data-name="Layer 2"><g id="unit">
                    <path class="cls-1" d="M485 509H29q-11 0-18-7t-7-18 7-18 18-7h456q11 0 18 7t7 18-7 18-18 7zm-75-101H302l108-109v109zm75 101q-11 0-18-7t-7-18V28q0-11 7-18.5T485 2t18 7.5 7 18.5v456q0 11-7 18t-18 7zm-456 0q-11 0-18-7-7-8-7-18.5t7-17.5L467 10q8-8 18.5-8t17.5 8q8 8 8 18t-8 17L47 502q-7 7-18 7zm188-119q-11 0-18-7l-26-25q-8-8-7.5-18.5T173 322q8-8 18.5-8t18.5 8l25 25q8 8 7.5 18t-7.5 18q-7 7-18 7zm76-76q-11 0-18-7l-26-26q-7-7-7-17t7-18q8-8 18.5-8t17.5 8l26 25q8 8 8 18t-8 18q-7 7-18 7zm76-76q-11 0-18-8l-25-25q-8-8-8-17.5t8-17.5 17.5-8 17.5 8l26 25q8 8 8 18t-8 17q-7 8-18 8z"></path>
                    </g></g>
                    </svg>