<svg xmlns="http://www.w3.org/2000/svg" version="1.1" xmlns:xlink="http://www.w3.org/1999/xlink" viewBox="0 0 510 510" preserveAspectRatio="xMidYMid">
                    <defs><style>.cls-1{fill:#595959;}</style></defs>
                    <title>use-case</title>
                    <g id="Layer_2" data-name="Layer 2"><g id="use-case">
                    <path class="cls-1" d="M256 134q-42 0-79.5 11.5T111 177t-44 47-16 58 16 58 44 47 65.5 31.5T256 430t79.5-11.5T401 387t44-47 16-58-16-58-44-47-65.5-31.5T256 134zm0 347q-54 0-100.5-15.5t-81-42.5T20 360 0 282t20-78.5T74.5 140t81-42.5T256 82t101 15.5 81.5 42.5 54 63.5T512 282t-19.5 78-54 63-81.5 42.5T256 481z"></path>
                    </g></g>
                    </svg>