<svg xmlns="http://www.w3.org/2000/svg" version="1.1" xmlns:xlink="http://www.w3.org/1999/xlink" viewBox="0 0 510 510" preserveAspectRatio="xMidYMid">
                    <defs><style>.cls-1{fill:#595959;}</style></defs>
                    <title>user</title>
                    <g id="Layer_2" data-name="Layer 2"><g id="user">
                    <path class="cls-1" d="M80 460h352v-32q0-30-11.5-57T389 324t-47-31.5-57-11.5h-57q-31 0-58 11.5T123 324t-31.5 47T80 428v32zm378 51H55q-11 0-18.5-7T29 486v-58q0-41 15.5-77T87 288t63.5-42.5T228 230h57q41 0 77 15.5t63 42.5 42.5 63 15.5 77v58q0 11-7 18t-18 7zM256 51q-37 0-63 26t-26 63q0 38 26 64t63 26q38 0 64-26t26-64q0-37-26-63t-64-26zm0 230q-29 0-54.5-11T157 240t-30-45-11-55 11-54.5T157 41t44.5-30T256 0t55 11 45 30 30 44.5 11 54.5-11 55-30 45-45 30-55 11z"></path>
                    </g></g>
                    </svg>