<svg xmlns="http://www.w3.org/2000/svg" version="1.1" xmlns:xlink="http://www.w3.org/1999/xlink" viewBox="0 0 510 510" preserveAspectRatio="xMidYMid">
                    <defs><style>.cls-1{fill:#595959;}</style></defs>
                    <title>value-mapping</title>
                    <g id="Layer_2" data-name="Layer 2"><g id="value-mapping">
                    <path class="cls-1" d="M153 461v-64H52v64h101zm0-359H52v70h101v-70zm8 244h43v141q0 11-7 18t-18 7H27q-11 0-18.5-7T1 487V26Q1 15 8.5 7.5T27 0h152q11 0 18 7.5t7 18.5v197H50v123h111zm-65-79h224v-42l96 75H192v44zm364 194v-64H360v64h100zM360 102v70h100v-70H360zM486 0q11 0 18 7.5t7 18.5v461q0 11-7 18t-18 7H334q-11 0-18.5-7t-7.5-18V346h154V223H308V26q0-11 7.5-18.5T334 0h152z"></path>
                    </g></g>
                    </svg>