<svg xmlns="http://www.w3.org/2000/svg" version="1.1" xmlns:xlink="http://www.w3.org/1999/xlink" viewBox="0 0 510 510" preserveAspectRatio="xMidYMid">
                    <defs><style>.cls-1{fill:#595959;}</style></defs>
                    <title>value-type</title>
                    <g id="Layer_2" data-name="Layer 2"><g id="value-type">
                    <path class="cls-1" d="M199 114H29q-12 0-20.5-8.5T0 85q0-11 8.5-20T29 56h170q12 0 20 9t8 20q0 12-8 20.5t-20 8.5zm285 170H313q-12 0-20-8t-8-20 8-20.5 20-8.5h171q11 0 19.5 8.5T512 256t-8.5 20-19.5 8zm0 171H370q-12 0-20.5-8.5T341 426q0-11 8.5-19.5T370 398h114q11 0 19.5 8.5T512 426q0 12-8.5 20.5T484 455zm0-341h-57q-12 0-20-8.5T399 85q0-11 8-20t20-9h57q11 0 19.5 9t8.5 20q0 12-8.5 20.5T484 114zM370 56q-12 0-20.5 9T341 85t8.5 20 20.5 9q11 0 20-9t9-20-9-20-20-9zm0 114q-35 0-60-25t-25-60 25-60 60-25 60 25 25 60-25 60-60 25zm-228 57q-11 0-19.5 8.5T114 256t8.5 20 19.5 8q12 0 20.5-8t8.5-20-8.5-20.5T142 227zm0 114q-18 0-33.5-7t-27-18.5-18-27T57 256q0-18 6.5-33.5t18-27 27-18.5 33.5-7 33.5 7 27 18.5 18 27T227 256q0 17-6.5 32.5t-18 27-27 18.5-33.5 7zm171 57q-12 0-20 8.5t-8 19.5q0 12 8 20.5t20 8.5 20-8.5 8-20.5q0-11-8-19.5t-20-8.5zm0 113q-35 0-60.5-24.5T227 426q0-18 7-33.5t18.5-27 27-18T313 341t33.5 6.5 27 18 18.5 27 7 33.5q0 36-25.5 60.5T313 511zM85 284H29q-12 0-20.5-8T0 256t8.5-20.5T29 227h56q12 0 20.5 8.5T114 256t-8.5 20-20.5 8zm57 171H29q-12 0-20.5-8.5T0 426q0-11 8.5-19.5T29 398h113q12 0 20.5 8.5T171 426q0 12-8.5 20.5T142 455z"></path>
                    </g></g>
                    </svg>